<svg width="180" height="180" viewBox="0 0 180 180" fill="none" xmlns="http://www.w3.org/2000/svg">
<path d="M28.2 172.67C26.6655 173.496 24.9419 173.906 23.2 173.86C21.8333 173.873 20.4763 173.629 19.2 173.14C18.0448 172.658 17.0101 171.928 16.17 171C15.2783 170.061 14.5965 168.943 14.17 167.72C13.2501 164.985 13.2501 162.025 14.17 159.29C14.5842 158.053 15.2672 156.922 16.17 155.98C16.6025 155.518 17.0817 155.103 17.6 154.74C18.1142 154.384 18.6679 154.089 19.25 153.86C20.5264 153.372 21.8837 153.131 23.25 153.15C24.6163 153.131 25.9737 153.372 27.25 153.86C27.8436 154.088 28.4077 154.387 28.93 154.75C30.4943 155.865 31.6694 157.442 32.29 159.26C32.7797 160.63 33.0202 162.076 33 163.53C33.0673 165.768 32.4573 167.974 31.25 169.86C31.38 169.99 31.77 170.32 32.41 170.86C32.7601 171.157 33.0755 171.492 33.35 171.86C33.6356 172.237 33.7782 172.703 33.7526 173.176C33.7269 173.648 33.5347 174.096 33.21 174.44C33.0414 174.615 32.8395 174.755 32.6163 174.851C32.3931 174.947 32.153 174.998 31.91 175C31.4564 175.004 31.0116 174.875 30.63 174.63C30.113 174.299 29.6276 173.92 29.18 173.5L28.49 172.87L28.2 172.67ZM23.2 157.36C22.2139 157.327 21.2465 157.634 20.46 158.23C19.7172 158.815 19.1555 159.599 18.84 160.49C18.4822 161.473 18.306 162.514 18.32 163.56C18.3049 164.455 18.4332 165.346 18.7 166.2C18.9246 166.933 19.2954 167.614 19.79 168.2C20.2045 168.685 20.72 169.073 21.3005 169.337C21.881 169.602 22.5122 169.736 23.15 169.73C23.6267 169.703 24.0993 169.625 24.56 169.5C24.1235 169.134 23.7248 168.726 23.37 168.28C23.1708 167.986 23.0726 167.635 23.09 167.28C23.0799 167.026 23.1217 166.773 23.2129 166.535C23.304 166.298 23.4425 166.082 23.62 165.9C23.7904 165.72 23.997 165.578 24.2262 165.483C24.4554 165.388 24.7021 165.343 24.95 165.35C25.3576 165.365 25.7554 165.478 26.11 165.68C26.6081 166.002 27.0796 166.363 27.52 166.76C27.908 165.742 28.098 164.659 28.08 163.57C28.0921 162.522 27.923 161.48 27.58 160.49C27.2695 159.607 26.7231 158.825 26 158.23C25.2021 157.619 24.2136 157.311 23.21 157.36H23.2Z" fill="#F58220"/>
<path d="M38.4 155.85V165.44C38.3653 165.997 38.454 166.554 38.6597 167.073C38.8654 167.592 39.1831 168.058 39.59 168.44C40.3721 169.17 41.4107 169.562 42.48 169.53C43.0273 169.556 43.5743 169.473 44.0893 169.286C44.6042 169.099 45.077 168.811 45.48 168.44C45.8821 168.056 46.1945 167.588 46.395 167.07C46.5955 166.551 46.6792 165.995 46.64 165.44V155.85C46.6148 155.527 46.6559 155.203 46.7608 154.897C46.8657 154.591 47.0322 154.309 47.25 154.07C47.4617 153.862 47.7138 153.7 47.9907 153.593C48.2677 153.487 48.5635 153.438 48.86 153.45C49.4697 153.449 50.0568 153.681 50.5 154.1C50.7239 154.33 50.8966 154.605 51.0069 154.907C51.1172 155.208 51.1626 155.53 51.14 155.85V165.44C51.175 167.009 50.7808 168.558 50 169.92C49.6486 170.521 49.2181 171.073 48.72 171.56C48.2113 172.064 47.6319 172.492 47 172.83C45.6162 173.53 44.0799 173.873 42.53 173.83C40.9832 173.843 39.454 173.501 38.06 172.83C36.8074 172.16 35.768 171.152 35.06 169.92C34.3151 168.547 33.946 167.002 33.99 165.44V155.85C33.9671 155.528 34.0093 155.204 34.1141 154.898C34.2189 154.592 34.3841 154.311 34.6 154.07C34.8234 153.858 35.0875 153.694 35.3763 153.587C35.6651 153.481 35.9726 153.434 36.28 153.45C36.5749 153.439 36.869 153.488 37.1442 153.594C37.4194 153.701 37.6698 153.863 37.88 154.07C38.0819 154.317 38.232 154.601 38.3213 154.907C38.4107 155.213 38.4374 155.534 38.4 155.85Z" fill="#F58220"/>
<path d="M52.54 169.25L57.28 156.46C58.03 154.22 59.17 153.09 60.73 153.09C62.29 153.09 63.42 154.09 64.2 156.17L69.2 169.44C69.4107 170.088 69.5384 170.76 69.58 171.44C69.5946 171.709 69.5472 171.978 69.4415 172.226C69.3357 172.474 69.1744 172.694 68.97 172.87C68.5463 173.245 67.9958 173.446 67.43 173.43C66.28 173.43 65.5 172.72 65.1 171.31L64.54 169.4H57.15L56.54 171.31C56.3842 171.888 56.0849 172.418 55.67 172.85C55.4664 173.037 55.2261 173.18 54.9645 173.269C54.7029 173.359 54.4256 173.393 54.15 173.37C52.74 173.37 52.04 172.75 52.04 171.49C52.0803 170.721 52.2493 169.963 52.54 169.25ZM62.54 150.42L59.85 151.56C59.6044 151.649 59.3494 151.709 59.09 151.74C58.7886 151.713 58.5059 151.582 58.29 151.37C58.0973 151.134 57.9977 150.835 58.01 150.53C57.9834 150.332 58.0268 150.13 58.1327 149.961C58.2385 149.791 58.4003 149.663 58.59 149.6L61.26 148.46C61.5112 148.373 61.7744 148.326 62.04 148.32C62.1906 148.315 62.3407 148.342 62.4803 148.398C62.6199 148.455 62.7459 148.541 62.85 148.65C63.0367 148.889 63.1324 149.187 63.12 149.49C63.1478 149.686 63.1073 149.885 63.0053 150.055C62.9033 150.224 62.746 150.353 62.56 150.42H62.54ZM58.4 165.28H63.12L60.84 158.06L58.4 165.28Z" fill="#F58220"/>
<path d="M70.64 155.85C70.6168 155.24 70.8239 154.644 71.22 154.18C71.4171 153.958 71.6612 153.783 71.9345 153.667C72.2078 153.551 72.5034 153.497 72.8 153.51C73.2193 153.503 73.6331 153.607 74 153.81C74.4021 154.117 74.783 154.451 75.14 154.81L83.49 165.22H83.54V155.78C83.5421 155.187 83.7389 154.611 84.1 154.14C84.2923 153.902 84.539 153.715 84.8193 153.593C85.0996 153.471 85.4051 153.419 85.71 153.44C86.0306 153.423 86.3513 153.472 86.6523 153.584C86.9533 153.696 87.2282 153.868 87.46 154.09C87.8646 154.557 88.0724 155.163 88.04 155.78V171.07C88.0697 171.728 87.8521 172.374 87.43 172.88C87.2201 173.112 86.9614 173.293 86.6726 173.413C86.3838 173.532 86.0721 173.586 85.76 173.57C85.3182 173.59 84.8822 173.464 84.52 173.21C84.1454 172.902 83.8097 172.549 83.52 172.16L75.17 161.75V171.29C75.19 171.602 75.1392 171.914 75.0214 172.203C74.9036 172.492 74.722 172.751 74.49 172.96C74.2494 173.176 73.9678 173.341 73.662 173.446C73.3562 173.551 73.0324 173.593 72.71 173.57C72.427 173.567 72.1478 173.504 71.8909 173.385C71.6341 173.266 71.4054 173.094 71.22 172.88C70.8424 172.396 70.6476 171.794 70.67 171.18L70.64 155.85Z" fill="#F58220"/>
<path d="M111.32 172.67C109.785 173.496 108.062 173.906 106.32 173.86C104.953 173.873 103.596 173.629 102.32 173.14C101.165 172.658 100.13 171.928 99.29 171C98.3982 170.061 97.7165 168.943 97.29 167.72C96.3701 164.985 96.3701 162.025 97.29 159.29C97.7042 158.053 98.3872 156.922 99.29 155.98C99.7225 155.518 100.202 155.103 100.72 154.74C101.234 154.384 101.788 154.089 102.37 153.86C104.932 152.913 107.748 152.913 110.31 153.86C110.904 154.088 111.468 154.387 111.99 154.75C112.497 155.112 112.966 155.524 113.39 155.98C114.274 156.925 114.955 158.041 115.39 159.26C115.872 160.631 116.108 162.077 116.09 163.53C116.157 165.768 115.547 167.974 114.34 169.86C114.47 169.99 114.86 170.32 115.5 170.86C115.85 171.157 116.165 171.492 116.44 171.86C116.692 172.195 116.831 172.601 116.84 173.02C116.856 173.545 116.666 174.055 116.31 174.44C115.964 174.792 115.493 174.993 115 175C114.546 175.004 114.102 174.875 113.72 174.63C113.203 174.299 112.718 173.92 112.27 173.5L111.58 172.87L111.32 172.67ZM106.32 157.36C105.334 157.327 104.366 157.634 103.58 158.23C102.842 158.819 102.281 159.602 101.96 160.49C101.602 161.473 101.426 162.514 101.44 163.56C101.425 164.455 101.553 165.346 101.82 166.2C102.045 166.933 102.415 167.614 102.91 168.2C103.325 168.684 103.841 169.071 104.421 169.335C105.002 169.6 105.632 169.734 106.27 169.73C106.747 169.703 107.219 169.625 107.68 169.5C107.243 169.134 106.845 168.726 106.49 168.28C106.294 167.985 106.2 167.634 106.22 167.28C106.208 167.027 106.248 166.774 106.337 166.536C106.427 166.299 106.564 166.082 106.74 165.9C106.911 165.72 107.117 165.578 107.347 165.484C107.576 165.389 107.822 165.343 108.07 165.35C108.478 165.365 108.875 165.478 109.23 165.68C109.728 166.002 110.2 166.363 110.64 166.76C111.028 165.742 111.218 164.659 111.2 163.57C111.212 162.522 111.043 161.48 110.7 160.49C110.374 159.604 109.81 158.826 109.07 158.24C108.287 157.637 107.318 157.326 106.33 157.36H106.32Z" fill="#F58220"/>
<path d="M121.52 155.85V165.44C121.485 165.997 121.574 166.554 121.78 167.073C121.985 167.592 122.303 168.058 122.71 168.44C123.492 169.17 124.531 169.562 125.6 169.53C126.147 169.556 126.694 169.473 127.209 169.286C127.724 169.099 128.197 168.811 128.6 168.44C129.002 168.056 129.315 167.588 129.515 167.07C129.716 166.551 129.799 165.995 129.76 165.44V155.85C129.735 155.527 129.776 155.203 129.881 154.897C129.986 154.591 130.152 154.309 130.37 154.07C130.582 153.862 130.834 153.7 131.111 153.593C131.388 153.487 131.683 153.438 131.98 153.45C132.59 153.449 133.177 153.681 133.62 154.1C133.844 154.33 134.017 154.605 134.127 154.907C134.237 155.208 134.283 155.53 134.26 155.85V165.44C134.308 167.003 133.935 168.551 133.18 169.92C132.822 170.52 132.388 171.071 131.89 171.56C131.366 172.068 130.769 172.496 130.12 172.83C128.736 173.53 127.2 173.873 125.65 173.83C124.103 173.843 122.574 173.501 121.18 172.83C119.927 172.16 118.888 171.152 118.18 169.92C117.435 168.547 117.066 167.002 117.11 165.44V155.85C117.087 155.528 117.129 155.204 117.234 154.898C117.339 154.592 117.504 154.311 117.72 154.07C117.943 153.858 118.207 153.694 118.496 153.587C118.785 153.481 119.093 153.434 119.4 153.45C119.695 153.439 119.989 153.488 120.264 153.594C120.539 153.701 120.79 153.863 121 154.07C121.202 154.317 121.352 154.601 121.441 154.907C121.531 155.213 121.557 155.534 121.52 155.85Z" fill="#F58220"/>
<path d="M136.24 161.59V155.9C136.21 155.585 136.255 155.268 136.372 154.974C136.488 154.681 136.673 154.419 136.91 154.21C137.317 153.831 137.853 153.62 138.41 153.62H145.52C145.8 153.605 146.079 153.647 146.342 153.743C146.605 153.839 146.846 153.988 147.05 154.18C147.25 154.381 147.406 154.622 147.506 154.888C147.606 155.153 147.648 155.437 147.63 155.72C147.645 156.257 147.467 156.782 147.13 157.2C146.918 157.405 146.665 157.562 146.387 157.662C146.11 157.762 145.814 157.802 145.52 157.78H140.74V161.36H145.18C145.471 161.348 145.762 161.395 146.034 161.5C146.305 161.605 146.553 161.765 146.76 161.97C147.124 162.377 147.323 162.904 147.32 163.45C147.323 163.73 147.269 164.008 147.162 164.266C147.055 164.525 146.897 164.759 146.697 164.955C146.497 165.152 146.26 165.305 145.999 165.407C145.738 165.51 145.46 165.558 145.18 165.55H140.74V169.25H145.52C145.832 169.223 146.146 169.262 146.442 169.363C146.738 169.465 147.01 169.627 147.24 169.84C147.421 170.026 147.564 170.247 147.658 170.489C147.753 170.731 147.797 170.99 147.79 171.25C147.817 171.55 147.776 171.852 147.67 172.134C147.564 172.416 147.395 172.671 147.177 172.878C146.958 173.086 146.696 173.242 146.409 173.334C146.122 173.426 145.818 173.452 145.52 173.41H138.58C138.264 173.426 137.948 173.379 137.651 173.271C137.354 173.162 137.081 172.996 136.85 172.78C136.45 172.348 136.231 171.779 136.24 171.19V161.59Z" fill="#F58220"/>
<path d="M149.09 155.85C149.07 155.239 149.28 154.643 149.68 154.18C149.877 153.958 150.121 153.783 150.394 153.667C150.668 153.551 150.963 153.497 151.26 153.51C151.679 153.503 152.093 153.607 152.46 153.81C152.862 154.117 153.243 154.451 153.6 154.81L162 165.23V155.79C161.998 155.196 162.195 154.618 162.56 154.15C162.752 153.912 162.998 153.724 163.279 153.602C163.559 153.48 163.865 153.428 164.17 153.45C164.491 153.433 164.811 153.482 165.112 153.594C165.413 153.706 165.688 153.878 165.92 154.1C166.325 154.567 166.532 155.173 166.5 155.79V171.08C166.53 171.738 166.312 172.384 165.89 172.89C165.68 173.121 165.421 173.303 165.133 173.423C164.844 173.542 164.532 173.596 164.22 173.58C163.778 173.6 163.342 173.474 162.98 173.22C162.605 172.912 162.27 172.559 161.98 172.17L153.63 161.76V171.3C153.65 171.612 153.599 171.924 153.481 172.213C153.364 172.502 153.182 172.761 152.95 172.97C152.709 173.186 152.428 173.351 152.122 173.456C151.816 173.561 151.492 173.603 151.17 173.58C150.887 173.577 150.608 173.514 150.351 173.395C150.094 173.276 149.865 173.104 149.68 172.89C149.3 172.407 149.101 171.805 149.12 171.19L149.09 155.85Z" fill="#F58220"/>
<path d="M103 9.82C100.44 7.75 94.89 5.3 86.29 11.82C84.8596 9.90061 83.043 8.30211 80.9573 7.12748C78.8715 5.95284 76.5629 5.22813 74.18 5C69.6 4.7 65.18 6.5 61.41 10.2C61.19 10.36 58.78 12.2 55.91 14.82C51.43 16.06 38.36 22.61 34.35 30.52C33.2615 32.9005 32.84 35.532 33.1306 38.1334C33.4212 40.7348 34.413 43.2084 36 45.29C37.92 47.81 42.44 51.78 51.07 50.03L51.46 49.97H51.7C53.98 56.4 54.62 57.49 54.7 57.53L54.97 57.98L55.34 57.6C58.4666 54.5141 61.9632 51.827 65.75 49.6C72.06 45.93 82.14 42 94 43.64L94.66 43.73L94.45 43.1C93.4568 40.4472 92.6056 37.7433 91.9 35C94.03 34.79 103.04 33.45 106.7 25.79C109.07 20.79 107.32 13.34 103 9.82ZM56.23 52.82L54.57 48.14C57.08 43 58.64 42 70.08 36.94C82.74 31.78 87.96 34.94 88.6 35.29C88.68 35.34 88.6 35.47 88.69 35.56C88.9 35.92 89.61 38.23 90.49 40.43C72.28 36.67 56.19 52.84 56.19 52.84L56.23 52.82ZM100.56 28.15C98.9332 29.8106 96.8721 30.98 94.6122 31.5247C92.3522 32.0693 89.9846 31.9672 87.78 31.23C88.61 28.44 89.71 25.04 89.72 25L90.6 22.3L84.91 30.62L80.91 31.08C81.42 29.2 82.77 23.45 80.61 21.26L79.74 20.37L79.92 21.6C80.46 25.47 78.05 30.6 77.07 31.78C75.91 32.1055 74.7311 32.3593 73.54 32.54C73.8 31.04 74.22 27.08 72.08 24.88L71.2 23.98L71.38 25.22C71.38 25.35 71.38 25.49 71.45 25.64C71.9993 28.375 71.5412 31.2163 70.16 33.64C66.84 34.29 61.66 37.21 59.43 38.53C57.6518 38.3617 55.8958 38.0098 54.19 37.48L51.79 36.6C50.4888 36.0583 49.2567 35.3633 48.12 34.53L46.48 33.19L46.9 34.28L47.22 34.9L48.15 36.08C50 38.63 54.67 40.69 56.03 41.25C55.54 42.47 53.49 46.43 47.41 46.25C45.5251 46.2442 43.6726 45.7593 42.0266 44.8409C40.3806 43.9226 38.995 42.6009 38 41C36.84 39 36 35.59 38.45 31C40.79 27.22 50.77 18.38 55.71 15.29C52.56 18.45 48.94 22.29 46.64 27L45.47 29.53L46.88 28C54.51 19.38 66.15 11.65 66.26 11.58C66.67 11.32 76.45 5.21 85.26 16.1L85.47 16.35L85.76 16.21C86.62 15.8 87.51 15.33 88.41 14.85C93.29 12.27 98.33 9.6 102.13 14.4C105.26 18.65 104.66 23.67 100.52 28.17L100.56 28.15Z" fill="url(#paint0_linear_386_945)"/>
<path d="M90 126.57C82.0357 126.591 74.3269 123.761 68.2679 118.591C62.209 113.422 58.2 106.255 56.966 98.3873C55.732 90.5191 57.3546 82.4691 61.5402 75.6933C65.7258 68.9175 72.1981 63.8633 79.7864 61.4448C87.3747 59.0264 95.5779 59.4035 102.912 62.5078C110.247 65.6121 116.228 71.2387 119.775 78.3699C123.321 85.5011 124.198 93.666 122.248 101.388C120.297 109.11 115.648 115.878 109.14 120.47L124.14 125.47C132.273 116.81 136.825 105.391 136.88 93.5109C136.934 81.6307 132.488 70.1705 124.435 61.4359C116.382 52.7014 105.32 47.3406 93.4741 46.4322C81.6284 45.5237 69.8783 49.1349 60.5875 56.5394C51.2967 63.9438 45.1548 74.5919 43.3972 86.3416C41.6397 98.0913 44.397 110.071 51.1145 119.87C57.832 129.668 68.0111 136.56 79.6041 139.157C91.197 141.755 103.344 139.866 113.6 133.87L95.87 126C93.9346 126.367 91.9699 126.558 90 126.57Z" fill="url(#paint1_linear_386_945)"/>
<path d="M134.06 137.07L130.45 135.55L82.45 116.22H82.38C82.294 116.205 82.206 116.205 82.12 116.22C81.9328 116.201 81.745 116.25 81.5911 116.358C81.4372 116.466 81.3276 116.626 81.2826 116.809C81.2375 116.992 81.26 117.185 81.3459 117.352C81.4318 117.519 81.5753 117.65 81.75 117.72L129.14 138.65L132.8 140.19L134.06 137.07Z" fill="url(#paint2_linear_386_945)"/>
<path d="M135 134.57L131.3 133.29L82.7 115.49C82.6159 115.457 82.5381 115.409 82.47 115.35C82.389 115.283 82.3221 115.2 82.2732 115.106C82.2243 115.013 82.1944 114.911 82.1851 114.806C82.1758 114.701 82.1873 114.595 82.2191 114.494C82.2508 114.394 82.3021 114.301 82.37 114.22C82.4705 114.104 82.6028 114.021 82.7504 113.98C82.898 113.939 83.0543 113.943 83.2 113.99L132.41 130.17L136.16 131.48L135 134.57Z" fill="url(#paint3_linear_386_945)"/>
<path d="M112.87 82.32C112.408 82.184 111.921 82.1502 111.445 82.221C110.968 82.2918 110.513 82.4655 110.11 82.73L109.92 82.82C109.395 83.1548 108.911 83.5509 108.48 84L108.31 84.19C107.443 85.068 106.763 86.1123 106.31 87.26C105.909 88.0919 105.779 89.0287 105.939 89.9383C106.098 90.848 106.539 91.6845 107.2 92.33C107.414 92.59 107.567 92.8939 107.65 93.22C106.449 96.8278 104.17 99.9801 101.12 102.252C98.0705 104.523 94.3974 105.804 90.5968 105.922C86.7961 106.039 83.0508 104.988 79.8665 102.91C76.6822 100.832 74.2122 97.8265 72.79 94.3C72.8226 94.0818 72.9162 93.8773 73.06 93.71C74.06 92.71 74.34 90.97 73.53 88.84C72.957 87.4478 72.3128 86.086 71.6 84.76C71.54 84.66 71.5 84.56 71.44 84.46C71.09 83.78 70.71 83.08 70.31 82.38C70.31 82.38 70.25 82.32 70.22 82.29C70.1647 82.2433 70.0998 82.2092 70.03 82.19C69.9528 82.1599 69.8672 82.1599 69.79 82.19C69.7374 82.2108 69.6896 82.242 69.6493 82.2817C69.6091 82.3214 69.5773 82.3688 69.5558 82.4211C69.5343 82.4733 69.5236 82.5294 69.5244 82.586C69.5251 82.6425 69.5372 82.6983 69.56 82.75L69.77 83.23L69.93 83.58L71.24 86.58L71.42 86.99L72.23 88.83C72.2829 88.9115 72.3183 89.0032 72.3338 89.0991C72.3494 89.1951 72.3448 89.2932 72.3203 89.3873C72.2959 89.4814 72.2521 89.5693 72.1918 89.6455C72.1315 89.7218 72.0559 89.7846 71.97 89.83C71.8929 89.845 71.813 89.8358 71.7414 89.8036C71.6698 89.7713 71.6099 89.7177 71.57 89.65C71.57 89.65 71.48 89.58 71.46 89.52L71.29 89.12L69.69 85.12L69.54 84.74L68.83 83C68.7857 82.8978 68.7043 82.8162 68.6023 82.7717C68.5002 82.7272 68.385 82.723 68.28 82.76C68.2278 82.7799 68.18 82.81 68.1396 82.8485C68.0991 82.8871 68.0668 82.9334 68.0444 82.9846C68.0221 83.0358 68.0102 83.091 68.0094 83.1468C68.0086 83.2027 68.019 83.2582 68.04 83.31L69.43 86.91L69.63 87.41L70.56 89.8C70.6133 89.9023 70.6244 90.0215 70.5907 90.1318C70.557 90.2422 70.4814 90.3349 70.38 90.39C70.22 90.45 70.06 90.39 69.95 90.18C69.84 89.97 69.87 90.12 69.85 90.06L69.63 89.46L67.28 83.6C67.261 83.5481 67.232 83.5004 67.1946 83.4597C67.1572 83.419 67.1121 83.3861 67.0619 83.3629C67.0117 83.3397 66.9575 83.3266 66.9022 83.3243C66.847 83.3221 66.7919 83.3309 66.74 83.35H66.68C66.5769 83.3903 66.4939 83.4696 66.449 83.5707C66.404 83.6718 66.4008 83.7865 66.44 83.89L68.78 90.48C68.8273 90.5802 68.835 90.6946 68.8017 90.8003C68.7683 90.9059 68.6963 90.9951 68.6 91.05C68.5086 91.0704 68.4141 91.0723 68.322 91.0556C68.2299 91.0389 68.1421 91.0038 68.0638 90.9525C67.9855 90.9012 67.9182 90.8348 67.866 90.757C67.8139 90.6793 67.7778 90.5919 67.76 90.5L65.76 84.19C65.7411 84.1356 65.7114 84.0856 65.6727 84.0429C65.6341 84.0002 65.5873 83.9657 65.535 83.9415C65.4828 83.9172 65.4262 83.9037 65.3687 83.9018C65.3111 83.8998 65.2538 83.9094 65.2 83.93C65.1078 83.9676 65.0315 84.0359 64.9841 84.1235C64.9366 84.211 64.9211 84.3123 64.94 84.41C65.4349 86.7777 66.066 89.1149 66.83 91.41C67.64 93.54 69.01 94.62 70.42 94.74C70.5759 94.7572 70.7261 94.8084 70.86 94.89C72.4115 98.8051 75.125 102.151 78.6354 104.477C82.1459 106.804 86.2847 107.999 90.4949 107.902C94.705 107.805 98.7845 106.42 102.184 103.935C105.584 101.45 108.14 97.9824 109.51 94C109.803 93.7784 110.147 93.6339 110.51 93.58C111.426 93.5266 112.303 93.19 113.019 92.6168C113.736 92.0436 114.257 91.262 114.51 90.38C115.63 87.45 115.14 83.18 112.87 82.32Z" fill="url(#paint4_linear_386_945)"/>
<defs>
<linearGradient id="paint0_linear_386_945" x1="14.73" y1="36.3458" x2="90.4153" y2="28.8047" gradientUnits="userSpaceOnUse">
<stop stop-color="#FEBC18"/>
<stop offset="1" stop-color="#F58220"/>
</linearGradient>
<linearGradient id="paint1_linear_386_945" x1="43.06" y1="93.31" x2="136.94" y2="93.31" gradientUnits="userSpaceOnUse">
<stop stop-color="#FEBC18"/>
<stop offset="1" stop-color="#F58220"/>
</linearGradient>
<linearGradient id="paint2_linear_386_945" x1="114.437" y1="122.895" x2="88.3863" y2="141.276" gradientUnits="userSpaceOnUse">
<stop stop-color="#F58220"/>
<stop offset="1" stop-color="#FEBC18"/>
</linearGradient>
<linearGradient id="paint3_linear_386_945" x1="110.252" y1="129.335" x2="103.188" y2="98.0307" gradientUnits="userSpaceOnUse">
<stop stop-color="#F58220"/>
<stop offset="1" stop-color="#FEBC18"/>
</linearGradient>
<linearGradient id="paint4_linear_386_945" x1="64.9" y1="95.05" x2="115.1" y2="95.05" gradientUnits="userSpaceOnUse">
<stop stop-color="#FEBC18"/>
<stop offset="1" stop-color="#F58220"/>
</linearGradient>
</defs>
</svg>
