<svg width="380" height="380" viewBox="0 0 380 380" fill="none" xmlns="http://www.w3.org/2000/svg">
<g opacity="0.35">
<path d="M352.759 295.372L282.271 311.259C281.007 311.547 279.68 311.348 278.557 310.701C277.433 310.054 276.596 309.006 276.211 307.768L254.723 238.781C254.416 237.79 254.415 236.73 254.721 235.739C255.026 234.748 255.623 233.872 256.433 233.226C257.244 232.579 258.231 232.192 259.265 232.115C260.299 232.038 261.332 232.275 262.23 232.794L272.196 238.528C277.945 226.597 281.034 213.56 281.25 200.318C281.466 187.077 278.804 173.946 273.448 161.834C268.092 149.722 260.17 138.917 250.229 130.167C240.288 121.416 228.565 114.929 215.871 111.153L247.977 76.3556C250.377 73.7255 251.707 70.2935 251.707 66.7329C251.707 63.1723 250.377 59.7402 247.977 57.1101L222.166 29.1204C248.659 34.2114 273.594 45.4319 294.975 61.8843C316.357 78.3368 333.591 99.5645 345.3 123.87C357.009 148.175 362.867 174.883 362.407 201.857C361.946 228.832 355.18 255.324 342.648 279.216L354.188 285.872C355.089 286.389 355.813 287.165 356.265 288.1C356.717 289.035 356.876 290.084 356.721 291.111C356.567 292.138 356.106 293.094 355.399 293.854C354.692 294.615 353.772 295.144 352.759 295.372Z" fill="#231F20"/>
<path d="M241.325 63.2285L192.33 10.1331C191.627 9.37058 190.71 8.83804 189.699 8.60507C188.688 8.37209 187.63 8.44954 186.664 8.82727C185.697 9.205 184.868 9.86545 184.283 10.7223C183.698 11.5791 183.385 12.5925 183.385 13.6299V26.9598C156.428 28.0505 130.1 35.4354 106.508 48.5237C82.9154 61.612 62.714 80.0405 47.5197 102.335C32.3254 124.629 22.56 150.17 19.0047 176.914C15.4494 203.658 18.203 230.863 27.0451 256.353L38.3598 220.015C39.2508 217.118 41.0495 214.584 43.4904 212.788C45.9313 210.991 48.8851 210.026 51.9159 210.037C52.9677 210.037 54.0162 210.154 55.0424 210.385L101.218 220.793C98.1481 207.911 97.9108 194.516 100.522 181.533C103.134 168.551 108.532 156.29 116.344 145.596C124.156 134.903 134.195 126.033 145.77 119.598C157.344 113.163 170.177 109.317 183.382 108.325V119.821C183.382 120.858 183.695 121.872 184.28 122.728C184.865 123.585 185.694 124.246 186.661 124.623C187.627 125.001 188.684 125.079 189.695 124.846C190.706 124.613 191.624 124.08 192.327 123.318L241.321 70.2222C242.201 69.2704 242.69 68.0221 242.691 66.726C242.691 65.4299 242.203 64.1811 241.325 63.2285Z" fill="#231F20"/>
<path d="M51.1848 219.141C51.4502 219.102 51.7183 219.085 51.9864 219.089C51.964 219.089 51.9395 219.081 51.916 219.081C51.6711 219.083 51.4268 219.103 51.1848 219.141Z" fill="#231F20"/>
<path d="M281.204 311.379C280.938 311.383 280.671 311.366 280.407 311.329C280.648 311.366 280.891 311.385 281.134 311.387C281.157 311.387 281.181 311.379 281.204 311.379Z" fill="#231F20"/>
<path d="M284.259 320.083C280.777 320.869 277.127 320.314 274.036 318.529C270.945 316.744 268.639 313.861 267.579 310.453L253.505 265.259C243.883 274.359 232.402 281.261 219.853 285.491C207.304 289.721 193.987 291.176 180.82 289.758C167.654 288.339 154.952 284.08 143.592 277.274C132.232 270.468 122.485 261.278 115.023 250.338L124.979 244.59C125.879 244.072 126.602 243.294 127.052 242.358C127.502 241.423 127.66 240.373 127.504 239.346C127.348 238.32 126.885 237.364 126.177 236.605C125.469 235.845 124.548 235.317 123.535 235.09L53.0505 219.208C51.7863 218.923 50.4611 219.124 49.3387 219.772C48.2164 220.42 47.3793 221.467 46.994 222.705L25.5112 291.686C25.2028 292.677 25.2003 293.738 25.5042 294.73C25.808 295.722 26.404 296.599 27.2142 297.247C28.0245 297.895 29.0114 298.283 30.0459 298.361C31.0804 298.44 32.1145 298.204 33.013 297.685L44.556 291.02C58.9796 313.82 78.5392 332.928 101.67 346.815C124.801 360.702 150.861 368.982 177.765 370.993C204.669 373.004 231.671 368.691 256.609 358.397C281.548 348.104 303.731 332.117 321.384 311.714L284.259 320.083Z" fill="#231F20"/>
</g>
<path d="M352.758 295.372L282.271 311.258C281.007 311.547 279.68 311.348 278.557 310.701C277.433 310.053 276.595 309.006 276.211 307.768L254.723 238.781C254.416 237.79 254.415 236.73 254.72 235.739C255.025 234.748 255.622 233.872 256.433 233.225C257.244 232.579 258.231 232.192 259.265 232.115C260.299 232.038 261.332 232.274 262.23 232.794L272.196 238.528C277.945 226.597 281.034 213.56 281.25 200.318C281.466 187.076 278.804 173.946 273.448 161.834C268.092 149.721 260.169 138.917 250.228 130.166C240.287 121.416 228.565 114.929 215.871 111.153L247.977 76.3554C250.377 73.7253 251.707 70.2932 251.707 66.7326C251.707 63.1721 250.377 59.74 247.977 57.1099L222.165 29.1201C248.659 34.2112 273.594 45.4317 294.975 61.8841C316.356 78.3365 333.591 99.5643 345.3 123.869C357.009 148.175 362.867 174.883 362.407 201.857C361.946 228.832 355.179 255.324 342.648 279.216L354.188 285.872C355.088 286.388 355.812 287.165 356.264 288.1C356.716 289.034 356.876 290.084 356.721 291.111C356.567 292.137 356.106 293.094 355.399 293.854C354.692 294.614 353.771 295.144 352.758 295.372Z" fill="url(#paint0_linear_159_3269)"/>
<path d="M241.325 63.2285L192.33 10.1331C191.627 9.37058 190.71 8.83804 189.699 8.60507C188.688 8.37209 187.63 8.44954 186.664 8.82727C185.697 9.205 184.868 9.86545 184.283 10.7223C183.698 11.5791 183.385 12.5925 183.385 13.6299V26.9598C156.428 28.0505 130.1 35.4354 106.508 48.5237C82.9154 61.612 62.714 80.0405 47.5197 102.335C32.3254 124.629 22.56 150.17 19.0047 176.914C15.4494 203.658 18.203 230.863 27.0451 256.353L38.3598 220.015C39.2508 217.118 41.0495 214.584 43.4904 212.788C45.9313 210.991 48.8851 210.026 51.9159 210.037C52.9677 210.037 54.0162 210.154 55.0424 210.385L101.218 220.793C98.1481 207.911 97.9108 194.516 100.522 181.533C103.134 168.551 108.532 156.29 116.344 145.596C124.156 134.903 134.195 126.033 145.77 119.598C157.344 113.163 170.177 109.317 183.382 108.325V119.821C183.382 120.858 183.695 121.872 184.28 122.728C184.865 123.585 185.694 124.246 186.661 124.623C187.627 125.001 188.684 125.079 189.695 124.846C190.706 124.613 191.624 124.08 192.327 123.318L241.321 70.2222C242.201 69.2704 242.69 68.0221 242.691 66.726C242.691 65.4299 242.203 64.1811 241.325 63.2285Z" fill="url(#paint1_linear_159_3269)"/>
<path d="M51.1848 219.14C51.4502 219.102 51.7183 219.085 51.9864 219.089C51.964 219.089 51.9395 219.081 51.916 219.081C51.6711 219.083 51.4268 219.103 51.1848 219.14Z" fill="url(#paint2_linear_159_3269)"/>
<path d="M281.204 311.379C280.938 311.383 280.671 311.366 280.407 311.329C280.648 311.365 280.891 311.385 281.134 311.387C281.157 311.387 281.181 311.379 281.204 311.379Z" fill="url(#paint3_linear_159_3269)"/>
<path d="M284.259 320.083C280.777 320.869 277.127 320.314 274.036 318.529C270.945 316.744 268.639 313.861 267.579 310.453L253.505 265.259C243.883 274.359 232.402 281.261 219.853 285.491C207.304 289.721 193.987 291.176 180.82 289.758C167.654 288.339 154.952 284.08 143.592 277.274C132.232 270.468 122.485 261.278 115.023 250.338L124.979 244.59C125.879 244.072 126.602 243.294 127.052 242.358C127.502 241.423 127.66 240.373 127.504 239.346C127.348 238.32 126.885 237.364 126.177 236.605C125.469 235.845 124.548 235.317 123.535 235.09L53.0505 219.208C51.7863 218.923 50.4611 219.124 49.3387 219.772C48.2164 220.42 47.3793 221.467 46.994 222.705L25.5112 291.686C25.2028 292.677 25.2003 293.738 25.5042 294.73C25.808 295.722 26.404 296.599 27.2142 297.247C28.0245 297.895 29.0114 298.283 30.0459 298.361C31.0804 298.44 32.1145 298.204 33.013 297.685L44.556 291.02C58.9796 313.82 78.5392 332.928 101.67 346.815C124.801 360.702 150.861 368.982 177.765 370.993C204.669 373.004 231.671 368.691 256.609 358.397C281.548 348.104 303.731 332.117 321.384 311.714L284.259 320.083Z" fill="url(#paint4_linear_159_3269)"/>
<path d="M76.1762 265.18C76.1762 272.35 73.3625 276.846 68.0457 276.846C62.8997 276.846 60.1553 272.179 60.1201 265.387C60.1201 258.458 63.0715 253.791 68.2858 253.791C73.671 253.791 76.1762 258.593 76.1762 265.18ZM64.3748 265.387C64.3396 270.807 65.85 273.62 68.1812 273.62C70.6523 273.62 71.9567 270.602 71.9567 265.25C71.9567 260.068 70.7217 257.017 68.1812 257.017C65.9183 257.017 64.3396 259.795 64.3748 265.387Z" fill="white"/>
<path d="M85.4337 257.977H85.3643L81.2825 260.035L80.562 256.845L85.9813 254.169H89.5155V276.468H85.4337V257.977Z" fill="white"/>
<path d="M176.081 67.0903C176.081 74.2612 173.267 78.756 167.95 78.756C162.806 78.756 160.06 74.0893 160.025 67.2973C160.025 60.3677 162.976 55.7009 168.191 55.7009C173.577 55.7009 176.081 60.5043 176.081 67.0903ZM164.28 67.2973C164.244 72.7166 165.755 75.5303 168.087 75.5303C170.558 75.5303 171.861 72.5117 171.861 67.1596C171.861 61.9784 170.626 58.9267 168.087 58.9267C165.824 58.9267 164.244 61.7051 164.275 67.2973H164.28Z" fill="white"/>
<path d="M178.716 78.3781V75.8045L181.359 73.3687C186.607 68.497 189.078 65.8221 189.112 62.8707C189.112 60.8821 188.044 59.1347 185.133 59.1347C183.385 59.2226 181.712 59.8725 180.363 60.9877L179.128 57.999C181.093 56.4837 183.51 55.6742 185.991 55.7008C190.93 55.7008 193.331 58.8241 193.331 62.4586C193.331 66.3697 190.518 69.526 186.642 73.1328L184.687 74.814V74.8834H193.846V78.3823L178.716 78.3781Z" fill="white"/>
<path d="M307.615 253.011C307.615 260.181 304.8 264.676 299.484 264.676C294.339 264.676 291.593 260.01 291.558 253.218C291.558 246.288 294.51 241.621 299.724 241.621C305.11 241.621 307.615 246.424 307.615 253.011ZM295.814 253.218C295.779 258.637 297.289 261.451 299.62 261.451C302.091 261.451 303.395 258.432 303.395 253.08C303.395 247.899 302.16 244.847 299.62 244.847C297.357 244.847 295.781 247.626 295.814 253.218Z" fill="white"/>
<path d="M311.109 259.94C312.666 260.801 314.407 261.272 316.186 261.313C319.41 261.313 320.715 259.498 320.68 257.745C320.68 255.104 318.21 253.972 315.636 253.972H313.68V250.884H315.569C317.524 250.884 319.994 249.992 319.994 247.763C319.994 246.253 318.862 244.983 316.426 244.983C314.806 245.031 313.228 245.517 311.863 246.391L310.902 243.337C312.838 242.175 315.061 241.58 317.318 241.621C321.916 241.621 324.282 244.16 324.282 247.076C324.282 249.409 322.91 251.332 320.165 252.29V252.36C321.518 252.534 322.761 253.194 323.664 254.216C324.567 255.238 325.069 256.554 325.075 257.918C325.075 261.691 321.92 264.677 316.396 264.677C314.214 264.73 312.057 264.197 310.152 263.132L311.109 259.94Z" fill="white"/>
<path d="M149.873 251.803C148.888 252.337 147.78 252.603 146.661 252.573C145.785 252.58 144.917 252.422 144.099 252.11C143.346 251.807 142.67 251.342 142.118 250.748C141.549 250.14 141.115 249.42 140.844 248.633C140.536 247.767 140.385 246.854 140.399 245.935C140.384 245.004 140.534 244.078 140.844 243.201C141.105 242.403 141.541 241.674 142.12 241.066C142.398 240.768 142.707 240.501 143.041 240.267C143.372 240.039 143.728 239.849 144.102 239.703C145.753 239.087 147.57 239.087 149.22 239.703C149.602 239.848 149.965 240.04 150.299 240.275C150.628 240.506 150.931 240.771 151.203 241.066C151.767 241.676 152.198 242.395 152.47 243.18C152.783 244.062 152.937 244.994 152.923 245.93C152.965 247.373 152.572 248.794 151.794 250.009C151.882 250.091 152.132 250.307 152.547 250.656C152.768 250.842 152.97 251.049 153.15 251.276C153.311 251.492 153.4 251.754 153.404 252.023C153.415 252.362 153.292 252.691 153.062 252.94C152.953 253.052 152.822 253.142 152.678 253.203C152.534 253.265 152.379 253.297 152.222 253.299C151.931 253.301 151.645 253.219 151.399 253.063C151.064 252.848 150.751 252.603 150.462 252.33C150.253 252.137 150.105 252.003 150.02 251.927C149.941 251.857 149.89 251.813 149.873 251.803ZM146.663 241.94C146.026 241.919 145.401 242.116 144.892 242.499C144.417 242.878 144.057 243.382 143.85 243.954C143.62 244.587 143.507 245.257 143.515 245.932C143.507 246.507 143.589 247.08 143.76 247.63C143.904 248.103 144.145 248.541 144.465 248.918C144.731 249.232 145.062 249.483 145.436 249.654C145.81 249.825 146.218 249.911 146.629 249.906C146.936 249.888 147.24 249.839 147.536 249.757C147.254 249.522 146.996 249.258 146.768 248.97C146.64 248.78 146.579 248.553 146.594 248.325C146.587 248.161 146.614 247.997 146.672 247.844C146.731 247.691 146.82 247.551 146.934 247.433C147.043 247.317 147.176 247.225 147.323 247.163C147.47 247.102 147.628 247.072 147.788 247.076C148.051 247.086 148.307 247.159 148.535 247.289C148.854 247.497 149.157 247.727 149.442 247.979C149.692 247.324 149.813 246.627 149.8 245.926C149.809 245.252 149.701 244.581 149.48 243.944C149.273 243.372 148.91 242.87 148.433 242.493C147.925 242.109 147.299 241.914 146.663 241.94Z" fill="#F58220"/>
<path d="M156.449 240.962V247.145C156.43 247.501 156.489 247.856 156.621 248.187C156.754 248.517 156.957 248.815 157.217 249.059C157.72 249.526 158.387 249.777 159.074 249.757C159.774 249.782 160.456 249.531 160.974 249.059C161.23 248.814 161.43 248.515 161.559 248.185C161.688 247.854 161.743 247.499 161.721 247.145V240.962C161.706 240.754 161.733 240.546 161.8 240.349C161.868 240.152 161.975 239.971 162.115 239.817C162.25 239.683 162.412 239.578 162.59 239.509C162.768 239.44 162.958 239.408 163.149 239.416C163.543 239.417 163.922 239.567 164.209 239.835C164.352 239.984 164.463 240.161 164.534 240.355C164.604 240.549 164.634 240.756 164.62 240.962V247.145C164.651 248.151 164.409 249.147 163.921 250.027C163.46 250.829 162.779 251.483 161.958 251.91C161.067 252.366 160.077 252.594 159.076 252.574C158.079 252.577 157.094 252.349 156.199 251.91C155.382 251.483 154.703 250.831 154.242 250.032C153.761 249.15 153.522 248.155 153.551 247.15V240.967C153.536 240.759 153.563 240.551 153.631 240.354C153.699 240.157 153.806 239.977 153.946 239.823C154.088 239.686 154.258 239.579 154.443 239.51C154.628 239.441 154.826 239.411 155.023 239.421C155.214 239.413 155.404 239.445 155.582 239.514C155.76 239.583 155.922 239.688 156.057 239.823C156.196 239.976 156.302 240.156 156.37 240.352C156.437 240.548 156.464 240.755 156.449 240.962Z" fill="#F58220"/>
<path d="M165.556 249.6L168.613 241.356C169.091 239.911 169.83 239.189 170.831 239.189C171.821 239.189 172.566 239.85 173.066 241.172L176.269 249.722C176.404 250.147 176.486 250.587 176.513 251.033C176.523 251.207 176.492 251.381 176.424 251.541C176.356 251.701 176.252 251.844 176.12 251.958C175.846 252.199 175.49 252.327 175.125 252.316C174.385 252.316 173.884 251.862 173.623 250.954L173.265 249.722H168.522L168.13 250.954C168.028 251.324 167.836 251.664 167.57 251.941C167.439 252.062 167.284 252.154 167.116 252.212C166.948 252.271 166.769 252.294 166.592 252.282C165.684 252.282 165.23 251.877 165.229 251.067C165.252 250.563 165.363 250.066 165.556 249.6ZM172.01 237.469L170.28 238.202C170.122 238.258 169.958 238.296 169.792 238.316C169.597 238.302 169.414 238.218 169.276 238.08C169.15 237.928 169.084 237.735 169.092 237.539C169.077 237.41 169.106 237.281 169.174 237.171C169.242 237.061 169.346 236.978 169.468 236.935L171.189 236.202C171.35 236.148 171.518 236.118 171.687 236.115C171.785 236.112 171.882 236.129 171.972 236.166C172.062 236.202 172.144 236.258 172.211 236.328C172.332 236.482 172.394 236.674 172.385 236.869C172.401 236.997 172.372 237.126 172.304 237.235C172.236 237.344 172.133 237.426 172.012 237.469H172.01ZM169.341 247.041H172.388L170.921 242.386H170.886L169.341 247.041Z" fill="#F58220"/>
<path d="M177.218 240.962C177.204 240.569 177.338 240.186 177.592 239.888C177.72 239.745 177.879 239.633 178.055 239.559C178.232 239.485 178.423 239.452 178.615 239.461C178.883 239.457 179.148 239.523 179.383 239.653C179.644 239.849 179.889 240.066 180.117 240.3L185.498 247.007H185.532V240.929C185.531 240.546 185.657 240.175 185.89 239.872C186.014 239.718 186.173 239.597 186.354 239.517C186.535 239.438 186.732 239.404 186.929 239.417C187.135 239.407 187.342 239.439 187.536 239.511C187.729 239.583 187.907 239.694 188.056 239.837C188.317 240.139 188.452 240.53 188.432 240.929V250.78C188.451 251.203 188.31 251.618 188.038 251.942C187.903 252.091 187.737 252.209 187.551 252.286C187.365 252.363 187.165 252.397 186.964 252.387C186.679 252.401 186.397 252.321 186.161 252.16C185.915 251.959 185.692 251.731 185.498 251.479L180.117 244.771V250.92C180.13 251.12 180.098 251.321 180.022 251.507C179.947 251.694 179.83 251.86 179.68 251.994C179.526 252.134 179.345 252.241 179.148 252.309C178.952 252.376 178.743 252.403 178.536 252.387C178.353 252.387 178.172 252.347 178.007 252.27C177.841 252.193 177.694 252.081 177.575 251.942C177.331 251.632 177.204 251.245 177.218 250.85V240.962Z" fill="#F58220"/>
<path d="M203.428 251.803C202.444 252.337 201.337 252.602 200.217 252.573C199.342 252.579 198.473 252.422 197.656 252.11C196.903 251.807 196.227 251.342 195.676 250.748C195.106 250.141 194.672 249.42 194.401 248.633C194.093 247.767 193.942 246.854 193.956 245.935C193.94 245.004 194.091 244.078 194.401 243.201C194.662 242.403 195.098 241.674 195.677 241.066C195.955 240.769 196.264 240.501 196.598 240.267C196.929 240.039 197.285 239.85 197.659 239.703C199.309 239.087 201.127 239.087 202.777 239.703C203.159 239.848 203.522 240.04 203.856 240.275C204.185 240.506 204.488 240.771 204.76 241.066C205.324 241.676 205.755 242.395 206.026 243.18C206.341 244.062 206.494 244.994 206.48 245.93C206.522 247.373 206.128 248.794 205.351 250.009C205.438 250.091 205.689 250.307 206.103 250.656C206.325 250.842 206.528 251.049 206.707 251.276C206.887 251.522 206.976 251.822 206.96 252.125C206.944 252.429 206.823 252.718 206.619 252.943C206.509 253.056 206.379 253.145 206.235 253.207C206.09 253.268 205.935 253.301 205.779 253.302C205.487 253.304 205.202 253.222 204.956 253.066C204.621 252.852 204.308 252.606 204.02 252.333L203.578 251.93C203.492 251.856 203.442 251.814 203.428 251.803ZM200.218 241.944C199.582 241.922 198.957 242.119 198.448 242.502C197.972 242.881 197.612 243.385 197.406 243.957C197.175 244.59 197.061 245.261 197.07 245.935C197.062 246.51 197.144 247.083 197.314 247.633C197.459 248.106 197.7 248.545 198.021 248.921C198.286 249.235 198.617 249.487 198.991 249.657C199.365 249.828 199.772 249.914 200.183 249.909C200.49 249.892 200.794 249.842 201.091 249.76C200.808 249.525 200.551 249.261 200.323 248.974C200.195 248.784 200.134 248.557 200.148 248.328C200.141 248.164 200.168 248 200.227 247.847C200.285 247.694 200.374 247.554 200.489 247.437C200.598 247.32 200.73 247.228 200.877 247.166C201.024 247.105 201.183 247.075 201.342 247.079C201.605 247.089 201.861 247.162 202.09 247.292C202.408 247.5 202.711 247.73 202.996 247.982C203.246 247.327 203.367 246.63 203.353 245.929C203.363 245.255 203.255 244.584 203.033 243.947C202.827 243.376 202.464 242.873 201.987 242.497C201.48 242.112 200.855 241.915 200.218 241.94V241.944Z" fill="#F58220"/>
<path d="M210.004 240.962V247.145C209.985 247.501 210.044 247.856 210.177 248.187C210.309 248.517 210.512 248.815 210.772 249.059C211.276 249.526 211.943 249.777 212.629 249.757C213.33 249.782 214.012 249.531 214.53 249.059C214.786 248.813 214.986 248.515 215.115 248.184C215.244 247.854 215.3 247.499 215.277 247.145V240.962C215.262 240.754 215.289 240.545 215.357 240.349C215.425 240.152 215.532 239.971 215.672 239.817C215.808 239.683 215.969 239.578 216.147 239.509C216.325 239.44 216.515 239.408 216.706 239.416C217.099 239.417 217.478 239.566 217.766 239.835C217.909 239.984 218.019 240.161 218.09 240.355C218.161 240.549 218.191 240.755 218.178 240.962V247.145C218.209 248.151 217.967 249.147 217.477 250.027C217.251 250.417 216.972 250.774 216.648 251.088C216.311 251.415 215.928 251.692 215.511 251.91C214.62 252.366 213.63 252.594 212.629 252.574C211.632 252.576 210.648 252.349 209.754 251.91C208.936 251.483 208.257 250.832 207.796 250.032C207.314 249.15 207.076 248.155 207.105 247.15V240.967C207.09 240.759 207.117 240.551 207.185 240.354C207.252 240.158 207.359 239.977 207.499 239.823C207.642 239.685 207.811 239.579 207.997 239.51C208.182 239.441 208.38 239.411 208.577 239.421C208.768 239.414 208.958 239.445 209.136 239.514C209.313 239.583 209.475 239.688 209.611 239.823C209.75 239.976 209.856 240.156 209.924 240.352C209.992 240.548 210.019 240.755 210.004 240.962Z" fill="#F58220"/>
<path d="M219.489 244.666V240.997C219.471 240.794 219.5 240.59 219.574 240.401C219.648 240.211 219.766 240.041 219.916 239.905C220.181 239.663 220.527 239.529 220.886 239.529H225.463C225.643 239.519 225.823 239.546 225.993 239.607C226.162 239.669 226.317 239.764 226.449 239.888C226.579 240.018 226.679 240.174 226.744 240.345C226.809 240.517 226.836 240.701 226.825 240.884C226.835 241.229 226.721 241.567 226.504 241.836C226.367 241.968 226.204 242.069 226.025 242.134C225.846 242.199 225.656 242.225 225.466 242.211H222.391V244.517H225.247C225.435 244.508 225.623 244.539 225.799 244.606C225.975 244.674 226.135 244.777 226.269 244.91C226.503 245.171 226.631 245.511 226.627 245.862C226.629 246.043 226.594 246.222 226.525 246.388C226.456 246.555 226.353 246.706 226.225 246.832C226.096 246.958 225.943 247.058 225.775 247.123C225.607 247.189 225.427 247.221 225.247 247.216H222.391V249.6H225.466C225.667 249.582 225.869 249.606 226.06 249.671C226.251 249.735 226.426 249.839 226.575 249.975C226.691 250.095 226.783 250.238 226.844 250.394C226.906 250.549 226.936 250.716 226.933 250.883C226.949 251.252 226.82 251.613 226.575 251.889C226.43 252.031 226.255 252.14 226.064 252.208C225.872 252.275 225.668 252.301 225.466 252.282H220.994C220.791 252.292 220.588 252.261 220.397 252.191C220.206 252.12 220.032 252.011 219.884 251.871C219.624 251.595 219.483 251.228 219.492 250.849L219.489 244.666Z" fill="#F58220"/>
<path d="M227.77 240.962C227.756 240.569 227.89 240.186 228.145 239.888C228.273 239.745 228.431 239.633 228.608 239.559C228.785 239.485 228.975 239.452 229.167 239.461C229.435 239.457 229.7 239.523 229.935 239.653C230.196 239.85 230.442 240.066 230.67 240.3L236.049 247.007H236.085V240.929C236.084 240.546 236.209 240.175 236.442 239.872C236.566 239.718 236.726 239.596 236.907 239.517C237.087 239.438 237.285 239.404 237.482 239.417C237.688 239.407 237.895 239.439 238.088 239.511C238.282 239.583 238.459 239.694 238.608 239.837C238.869 240.139 239.004 240.53 238.984 240.929V250.78C239.003 251.203 238.862 251.617 238.591 251.942C238.456 252.091 238.289 252.208 238.103 252.285C237.918 252.362 237.717 252.397 237.516 252.387C237.231 252.401 236.949 252.321 236.713 252.16C236.467 251.959 236.244 251.731 236.049 251.479L230.67 244.771V250.92C230.683 251.12 230.651 251.321 230.575 251.507C230.499 251.694 230.382 251.86 230.232 251.994C230.078 252.134 229.897 252.241 229.701 252.308C229.504 252.376 229.296 252.403 229.089 252.387C228.906 252.387 228.726 252.347 228.56 252.27C228.394 252.193 228.247 252.081 228.128 251.942C227.884 251.632 227.757 251.245 227.771 250.85L227.77 240.962Z" fill="#F58220"/>
<path d="M198.041 146.877C196.393 145.548 192.819 143.969 187.275 148.157C186.354 146.929 185.187 145.907 183.849 145.156C182.511 144.404 181.03 143.941 179.502 143.795C177.971 143.726 176.443 143.99 175.023 144.567C173.603 145.145 172.325 146.023 171.277 147.141C171.134 147.248 169.581 148.411 167.732 150.119C164.843 150.92 156.417 155.136 153.837 160.233C153.138 161.764 152.867 163.456 153.053 165.129C153.24 166.802 153.877 168.393 154.896 169.733C156.132 171.357 159.046 173.917 164.603 172.787C164.687 172.768 164.772 172.755 164.858 172.747C164.908 172.744 164.958 172.738 165.008 172.728C165.532 174.393 166.167 176.021 166.908 177.601L167.085 177.892L167.322 177.648C169.337 175.655 171.591 173.919 174.033 172.481C179.515 169.234 185.917 167.891 192.242 168.662L192.669 168.722L192.531 168.318C191.903 166.6 191.366 164.85 190.921 163.076C192.297 162.938 198.103 162.071 200.458 157.142C201.159 155.39 201.303 153.464 200.87 151.628C200.438 149.791 199.45 148.132 198.041 146.877ZM167.91 174.598L166.842 171.581C168.49 168.26 169.492 167.599 176.867 164.353C185.024 161.028 188.387 163.038 188.795 163.286C188.85 163.32 188.821 163.401 188.854 163.458C188.99 163.69 189.446 165.177 190.016 166.599C178.275 164.175 167.91 174.594 167.91 174.594V174.598ZM196.471 158.694C195.423 159.765 194.095 160.519 192.638 160.87C191.181 161.222 189.655 161.156 188.235 160.68C188.768 158.882 189.479 156.691 189.487 156.669L190.051 154.93L186.39 160.286L183.795 160.586C184.129 159.372 184.996 155.669 183.606 154.256L183.048 153.687L183.155 154.475C183.256 156.803 182.613 159.102 181.319 161.039C180.572 161.246 179.813 161.409 179.047 161.527C179.212 160.559 179.482 158.004 178.105 156.59L177.539 156.008L177.656 156.812C177.668 156.891 177.683 156.982 177.702 157.083C178.05 158.84 177.755 160.664 176.871 162.222C174.434 162.954 172.107 164.013 169.954 165.371C168.809 165.263 167.678 165.037 166.58 164.696L165.031 164.126C164.193 163.779 163.4 163.332 162.67 162.793L161.613 161.939L161.88 162.639L162.094 163.04L162.692 163.8C163.881 165.441 166.889 166.769 167.764 167.13C167.452 167.917 166.131 170.466 162.213 170.332C161.008 170.325 159.823 170.013 158.77 169.427C157.717 168.84 156.829 167.997 156.189 166.976C155.441 165.667 154.886 163.487 156.482 160.547C157.987 158.112 164.417 152.416 167.6 150.421C165.253 152.602 163.278 155.153 161.754 157.971L161.007 159.598L161.91 158.595C165.671 154.619 169.859 151.07 174.399 148.013C174.665 147.844 180.962 143.909 186.667 150.927L186.798 151.089L186.985 150.999C187.544 150.73 188.115 150.428 188.692 150.121C191.834 148.457 195.083 146.737 197.536 149.832C199.527 152.566 199.137 155.796 196.471 158.694Z" fill="url(#paint5_linear_159_3269)"/>
<path d="M189.694 222.101C184.561 222.116 179.593 220.294 175.687 216.964C171.782 213.634 169.197 209.016 168.4 203.945C167.603 198.875 168.647 193.687 171.343 189.32C174.039 184.952 178.209 181.694 183.099 180.134C187.989 178.574 193.275 178.815 198.003 180.814C202.73 182.813 206.586 186.438 208.873 191.032C211.16 195.627 211.727 200.889 210.472 205.866C209.216 210.842 206.221 215.205 202.029 218.166L211.719 221.368C216.948 215.795 219.873 208.448 219.906 200.805C219.938 193.162 217.075 185.791 211.893 180.173C206.71 174.556 199.593 171.109 191.973 170.527C184.352 169.944 176.794 172.268 170.817 177.033C164.841 181.797 160.891 188.647 159.761 196.206C158.631 203.765 160.405 211.471 164.726 217.775C169.047 224.079 175.595 228.512 183.053 230.184C190.511 231.856 198.325 230.641 204.924 226.785L193.473 221.747C192.227 221.977 190.962 222.095 189.694 222.101Z" fill="url(#paint6_linear_159_3269)"/>
<path d="M218.084 228.867L215.757 227.885L184.819 215.433L184.798 215.425L184.774 215.415C184.697 215.384 184.614 215.373 184.531 215.381C184.449 215.389 184.369 215.417 184.3 215.463C184.231 215.508 184.173 215.57 184.133 215.642C184.092 215.715 184.07 215.796 184.067 215.878C184.067 215.977 184.095 216.074 184.148 216.157C184.202 216.239 184.278 216.305 184.367 216.346L214.902 229.832L217.259 230.825L218.084 228.867Z" fill="url(#paint7_linear_159_3269)"/>
<path d="M218.713 227.253L216.327 226.424L185.011 214.957L184.989 214.95L184.965 214.94C184.912 214.92 184.862 214.892 184.818 214.856C184.712 214.767 184.645 214.64 184.633 214.503C184.62 214.365 184.663 214.228 184.751 214.122C184.817 214.049 184.902 213.996 184.997 213.971C185.091 213.945 185.192 213.947 185.285 213.977L216.994 224.407L219.41 225.246L218.713 227.253Z" fill="url(#paint8_linear_159_3269)"/>
<path d="M204.427 193.586C204.13 193.499 203.817 193.478 203.51 193.524C203.203 193.57 202.91 193.681 202.651 193.851C202.61 193.874 202.571 193.887 202.53 193.911C202.194 194.115 201.883 194.359 201.603 194.636C201.563 194.675 201.527 194.72 201.489 194.76C200.928 195.325 200.485 195.997 200.187 196.735C199.93 197.272 199.847 197.875 199.95 198.461C200.053 199.047 200.337 199.586 200.762 200.003C200.901 200.17 201 200.367 201.052 200.578C200.28 202.901 198.815 204.931 196.853 206.395C194.891 207.859 192.528 208.687 190.082 208.766C187.635 208.845 185.224 208.173 183.171 206.839C181.119 205.505 179.525 203.574 178.604 201.306C178.625 201.165 178.688 201.034 178.784 200.929C179.131 200.491 179.345 199.961 179.399 199.404C179.453 198.847 179.346 198.286 179.09 197.789C178.892 197.27 178.427 196.287 177.843 195.164L177.742 194.968C177.513 194.533 177.269 194.082 177.014 193.626C177 193.601 176.972 193.592 176.952 193.574C176.918 193.541 176.877 193.517 176.832 193.503C176.783 193.486 176.73 193.486 176.681 193.503C176.646 193.516 176.615 193.536 176.588 193.562C176.562 193.587 176.541 193.618 176.526 193.652C176.512 193.686 176.505 193.722 176.505 193.759C176.505 193.796 176.513 193.832 176.528 193.866L176.665 194.176L176.765 194.402L177.613 196.323L177.729 196.588L178.252 197.774C178.282 197.826 178.302 197.883 178.31 197.943C178.318 198.003 178.315 198.063 178.299 198.121C178.284 198.18 178.257 198.234 178.22 198.282C178.183 198.329 178.138 198.369 178.085 198.399C178.036 198.411 177.984 198.407 177.937 198.388C177.889 198.369 177.849 198.336 177.822 198.293C177.798 198.263 177.767 198.246 177.752 198.207L177.646 197.948L176.611 195.401L176.514 195.16L176.055 194.029C176.028 193.964 175.977 193.911 175.912 193.883C175.847 193.855 175.774 193.853 175.707 193.878L175.672 193.892C175.639 193.905 175.608 193.924 175.582 193.948C175.556 193.973 175.535 194.003 175.52 194.035C175.506 194.068 175.498 194.103 175.497 194.139C175.496 194.175 175.502 194.211 175.515 194.244L176.414 196.56L176.54 196.88L177.139 198.425C177.173 198.491 177.18 198.567 177.159 198.638C177.138 198.71 177.09 198.77 177.026 198.806L176.996 198.817L176.966 198.829C176.867 198.866 176.762 198.8 176.688 198.696C176.669 198.668 176.64 198.653 176.628 198.619L176.483 198.231L175.056 194.412C175.044 194.378 175.025 194.347 175 194.321C174.976 194.295 174.946 194.274 174.914 194.259C174.881 194.244 174.846 194.236 174.81 194.235C174.774 194.234 174.738 194.24 174.705 194.253L174.671 194.265C174.604 194.291 174.551 194.341 174.521 194.405C174.491 194.47 174.487 194.543 174.511 194.61L176.02 198.858C176.051 198.923 176.057 198.998 176.035 199.066C176.013 199.135 175.966 199.193 175.903 199.228C175.844 199.24 175.783 199.241 175.724 199.229C175.665 199.218 175.608 199.195 175.558 199.162C175.508 199.129 175.464 199.086 175.431 199.036C175.397 198.986 175.373 198.93 175.361 198.871L174.053 194.803C174.041 194.768 174.023 194.736 173.999 194.708C173.975 194.681 173.945 194.658 173.912 194.642C173.879 194.627 173.843 194.618 173.806 194.616C173.769 194.615 173.733 194.621 173.698 194.634C173.637 194.656 173.587 194.701 173.555 194.758C173.524 194.815 173.515 194.882 173.529 194.945C173.846 196.464 174.252 197.963 174.744 199.435C174.883 199.977 175.176 200.468 175.586 200.848C175.997 201.228 176.509 201.482 177.06 201.578C177.159 201.588 177.256 201.621 177.342 201.672C178.339 204.201 180.089 206.363 182.354 207.866C184.62 209.369 187.292 210.14 190.01 210.076C192.728 210.011 195.36 209.114 197.552 207.505C199.744 205.896 201.389 203.653 202.265 201.08C202.453 200.939 202.673 200.846 202.905 200.811C203.499 200.781 204.069 200.567 204.535 200.198C205.001 199.829 205.341 199.323 205.505 198.752C206.211 196.893 205.895 194.145 204.427 193.586Z" fill="url(#paint9_linear_159_3269)"/>
<path d="M97.8682 312.087C97.4733 311.793 97.1339 311.432 96.8659 311.019C96.5891 310.618 96.3946 310.166 96.2938 309.689C96.2456 309.488 96.2413 309.28 96.2811 309.077C96.3209 308.874 96.4038 308.683 96.5243 308.515C96.6051 308.412 96.6924 308.315 96.7858 308.224L117.227 292.862C117.476 292.684 117.762 292.563 118.063 292.508C118.365 292.453 118.675 292.464 118.971 292.542C119.66 292.695 120.31 292.988 120.88 293.403C121.451 293.817 121.93 294.345 122.287 294.954C122.448 295.211 122.551 295.501 122.589 295.803C122.627 296.104 122.599 296.41 122.507 296.7L114.2 320.882C114.158 321.008 114.103 321.129 114.034 321.243C113.908 321.405 113.749 321.539 113.568 321.635C113.386 321.73 113.186 321.786 112.981 321.798C112.488 321.853 111.989 321.808 111.513 321.668C111.039 321.539 110.591 321.327 110.19 321.042C109.887 320.834 109.635 320.56 109.452 320.242C109.373 320.088 109.331 319.918 109.328 319.745C109.324 319.572 109.36 319.401 109.433 319.244L111.278 314.194L104.049 308.937L99.8461 312.272C99.7167 312.391 99.5617 312.477 99.3932 312.526C99.2246 312.574 99.0472 312.583 98.8748 312.551C98.5096 312.471 98.1662 312.312 97.8682 312.087ZM107.261 306.373L112.731 310.35L117.012 298.715L107.261 306.373ZM119.376 289.376C119.254 289.276 119.16 289.147 119.102 289C119.045 288.853 119.026 288.694 119.048 288.538C119.056 288.157 119.182 287.787 119.409 287.479C119.582 287.242 119.817 287.056 120.087 286.94C120.357 286.824 120.654 286.782 120.946 286.82L124.803 286.933C125.037 286.947 125.262 287.027 125.451 287.165C125.64 287.303 125.786 287.492 125.871 287.71L127.159 291.289C127.278 291.57 127.322 291.877 127.287 292.18C127.252 292.483 127.139 292.772 126.96 293.018C126.744 293.314 126.447 293.54 126.106 293.669C125.961 293.741 125.8 293.772 125.639 293.76C125.479 293.749 125.324 293.695 125.191 293.604C125.139 293.563 125.094 293.514 125.057 293.458C125.009 293.393 124.961 293.326 124.914 293.258L123.648 289.647L119.79 289.534L119.556 289.46C119.492 289.442 119.431 289.414 119.376 289.376ZM129.341 284.657C129.81 284.619 130.283 284.647 130.745 284.742C131.258 284.86 131.74 285.087 132.158 285.409C132.783 285.804 133.279 286.374 133.585 287.047C133.778 287.536 133.824 288.07 133.716 288.584C133.624 289.025 133.443 289.441 133.183 289.809C132.976 290.103 132.712 290.352 132.408 290.543C132.083 290.733 131.727 290.864 131.357 290.932C131.052 290.999 130.785 291.068 130.556 291.145C130.356 291.198 130.179 291.313 130.051 291.474C129.98 291.575 129.886 291.659 129.777 291.717C129.668 291.776 129.547 291.808 129.423 291.811C129.142 291.82 128.867 291.73 128.646 291.557C128.435 291.403 128.282 291.182 128.213 290.93C128.171 290.812 128.16 290.685 128.178 290.561C128.197 290.437 128.245 290.319 128.319 290.217C128.458 290.027 128.638 289.871 128.846 289.76C129.085 289.628 129.33 289.51 129.582 289.406C129.939 289.313 130.266 289.214 130.565 289.112C130.812 289.043 131.033 288.901 131.197 288.705C131.285 288.591 131.344 288.457 131.367 288.315C131.391 288.173 131.379 288.028 131.333 287.892C131.236 287.593 131.043 287.335 130.785 287.157C130.554 286.982 130.282 286.867 129.995 286.823C129.73 286.784 129.462 286.766 129.194 286.769C128.97 286.767 128.751 286.699 128.565 286.575C128.452 286.483 128.361 286.366 128.299 286.234C128.237 286.102 128.206 285.957 128.207 285.811C128.158 285.657 128.159 285.492 128.21 285.338C128.261 285.185 128.359 285.051 128.49 284.957C128.737 284.774 129.034 284.67 129.341 284.659V284.657Z" fill="white"/>
<path d="M120.286 327.12C119.739 326.871 119.26 326.493 118.891 326.019C118.718 325.832 118.605 325.598 118.565 325.347C118.526 325.096 118.562 324.839 118.669 324.609L128.924 302.59C129.043 302.24 129.248 301.926 129.518 301.674C129.789 301.423 130.117 301.242 130.475 301.148C131.084 301.027 131.717 301.104 132.28 301.367C132.766 301.58 133.219 301.863 133.625 302.207C133.979 302.539 134.243 302.957 134.389 303.42C134.593 304.086 134.711 304.775 134.741 305.471L135.364 315.364L143.37 309.493C143.951 309.098 144.563 308.752 145.202 308.46C145.641 308.261 146.127 308.19 146.604 308.256C147.123 308.344 147.626 308.506 148.099 308.736C148.671 308.996 149.143 309.434 149.446 309.985C149.598 310.32 149.666 310.687 149.645 311.054C149.623 311.422 149.512 311.778 149.322 312.093L139.067 334.111C138.96 334.341 138.786 334.535 138.568 334.666C138.35 334.798 138.098 334.862 137.844 334.849C137.244 334.866 136.648 334.743 136.104 334.489C135.56 334.236 135.082 333.859 134.709 333.389C134.536 333.202 134.422 332.968 134.383 332.717C134.343 332.465 134.379 332.208 134.487 331.977L141.543 316.829L134.043 322.254C133.726 322.468 133.357 322.593 132.976 322.614C132.651 322.628 132.327 322.565 132.031 322.431C131.757 322.299 131.517 322.107 131.329 321.869C131.098 321.561 130.964 321.193 130.943 320.81L130.435 311.31L123.249 326.74C123.144 326.97 122.974 327.163 122.76 327.296C122.545 327.429 122.296 327.495 122.044 327.487C121.437 327.511 120.833 327.385 120.286 327.12Z" fill="white"/>
<path d="M162.218 341.787C161.62 341.681 161.056 341.431 160.577 341.058C160.368 340.916 160.206 340.717 160.109 340.484C160.013 340.251 159.988 339.995 160.035 339.748L164.21 317.873L158.598 316.806C158.362 316.762 158.143 316.655 157.964 316.495C157.785 316.335 157.653 316.129 157.584 315.9C157.39 315.374 157.347 314.804 157.462 314.255C157.561 313.728 157.791 313.234 158.131 312.819C158.28 312.619 158.485 312.467 158.719 312.382C158.954 312.297 159.208 312.282 159.451 312.339L175.597 315.42C175.848 315.452 176.084 315.558 176.274 315.725C176.465 315.892 176.601 316.112 176.665 316.356C176.817 316.868 176.843 317.409 176.741 317.933C176.645 318.483 176.404 318.997 176.041 319.422C175.891 319.613 175.689 319.758 175.461 319.84C175.232 319.922 174.984 319.938 174.747 319.886L169.173 318.819L164.999 340.694C164.951 340.943 164.83 341.173 164.651 341.354C164.472 341.535 164.243 341.658 163.993 341.709C163.417 341.876 162.808 341.903 162.218 341.787Z" fill="white"/>
<path d="M180.1 344.218C179.499 344.213 178.908 344.062 178.378 343.779C178.144 343.679 177.945 343.512 177.807 343.298C177.669 343.084 177.598 342.834 177.602 342.58L178.058 317.323C178.055 317.066 178.132 316.815 178.279 316.605C178.425 316.394 178.634 316.235 178.875 316.148C179.428 315.915 180.022 315.8 180.621 315.811C181.221 315.822 181.811 315.958 182.354 316.211C182.588 316.31 182.786 316.477 182.921 316.692C183.056 316.906 183.122 317.157 183.11 317.41L182.926 327.551L191.669 327.707L191.852 317.567C191.849 317.31 191.927 317.059 192.074 316.849C192.22 316.639 192.429 316.479 192.671 316.393C193.222 316.159 193.817 316.044 194.416 316.055C195.014 316.065 195.604 316.202 196.147 316.455C196.381 316.553 196.579 316.721 196.714 316.936C196.849 317.15 196.915 317.401 196.903 317.655L196.448 342.912C196.446 343.164 196.369 343.411 196.227 343.62C196.085 343.828 195.884 343.991 195.65 344.086C195.105 344.345 194.507 344.474 193.904 344.463C193.3 344.452 192.708 344.301 192.172 344.023C191.938 343.923 191.74 343.755 191.601 343.541C191.463 343.328 191.392 343.078 191.396 342.823L191.598 331.672L182.855 331.515L182.654 342.666C182.652 342.919 182.575 343.165 182.432 343.374C182.29 343.583 182.09 343.745 181.856 343.84C181.31 344.108 180.707 344.238 180.1 344.218Z" fill="white"/>
<path d="M213.226 342.716C211.627 342.993 209.989 342.947 208.408 342.583C206.953 342.231 205.645 341.43 204.672 340.293C203.541 338.874 202.838 337.163 202.644 335.359L199.843 317.387C199.796 317.137 199.828 316.88 199.932 316.649C200.037 316.418 200.21 316.225 200.429 316.096C200.933 315.772 201.499 315.557 202.091 315.465C202.683 315.373 203.287 315.406 203.866 315.562C204.116 315.615 204.344 315.744 204.517 315.932C204.691 316.12 204.802 316.357 204.835 316.611L207.636 334.583C207.682 335.19 207.85 335.782 208.131 336.323C208.411 336.864 208.798 337.343 209.268 337.73C210.256 338.302 211.41 338.519 212.538 338.344C213.666 338.169 214.7 337.614 215.469 336.77C215.804 336.259 216.032 335.685 216.137 335.084C216.243 334.482 216.225 333.865 216.083 333.271L213.28 315.293C213.233 315.047 213.261 314.791 213.362 314.561C213.463 314.331 213.632 314.138 213.846 314.006C214.353 313.666 214.932 313.447 215.537 313.366C216.126 313.268 216.729 313.302 217.303 313.464C217.554 313.517 217.781 313.646 217.955 313.834C218.128 314.022 218.239 314.259 218.273 314.512L221.073 332.484C221.437 334.261 221.288 336.105 220.646 337.801C220.06 339.185 219.051 340.348 217.764 341.123C216.371 341.948 214.829 342.49 213.226 342.716ZM213.713 347.597C213.365 347.659 213.009 347.647 212.666 347.561C212.324 347.475 212.003 347.318 211.726 347.099C211.17 346.685 210.798 346.068 210.692 345.383C210.585 344.697 210.751 343.997 211.155 343.433C211.356 343.145 211.615 342.902 211.915 342.72C212.215 342.538 212.55 342.42 212.898 342.375C213.235 342.32 213.579 342.336 213.909 342.419C214.24 342.503 214.55 342.654 214.82 342.862C215.1 343.063 215.338 343.318 215.519 343.612C215.7 343.906 215.821 344.234 215.874 344.575C215.927 344.916 215.912 345.265 215.829 345.6C215.746 345.935 215.598 346.251 215.392 346.528C215.201 346.813 214.954 347.055 214.665 347.239C214.376 347.423 214.051 347.545 213.713 347.597ZM215.216 316.604L214.706 313.34C215.58 313.252 216.408 312.912 217.091 312.36C217.358 312.116 217.555 311.805 217.663 311.46C217.772 311.115 217.788 310.748 217.709 310.395C217.643 309.944 217.723 309.483 217.938 309.081C218.045 308.864 218.205 308.679 218.404 308.541C218.603 308.403 218.833 308.319 219.073 308.294C219.324 308.225 219.589 308.228 219.837 308.303C220.086 308.379 220.308 308.524 220.477 308.721C220.75 309.055 220.933 309.452 221.011 309.876C221.174 310.863 221.096 311.874 220.783 312.823C220.447 313.795 219.814 314.637 218.974 315.229C217.849 315.982 216.56 316.453 215.216 316.604Z" fill="white"/>
<path d="M236.261 337.02C234.81 337.52 233.273 337.719 231.743 337.606C230.269 337.494 228.87 336.913 227.749 335.949C226.42 334.721 225.456 333.15 224.963 331.409L221.529 321.124C220.878 319.437 220.705 317.602 221.029 315.822C221.346 314.377 222.116 313.072 223.228 312.096C224.394 311.081 225.754 310.314 227.226 309.84C228.777 309.288 230.426 309.065 232.068 309.187C233.469 309.287 234.818 309.764 235.97 310.567C237.101 311.398 237.931 312.573 238.338 313.915C238.498 314.24 238.585 314.596 238.593 314.957C238.6 315.319 238.528 315.678 238.382 316.009C237.963 316.537 237.382 316.912 236.729 317.077C236.157 317.29 235.542 317.363 234.935 317.29C234.682 317.257 234.444 317.153 234.248 316.99C234.052 316.827 233.907 316.612 233.828 316.369C233.703 316.018 233.543 315.68 233.349 315.362C233.112 314.968 232.809 314.618 232.451 314.329C232.029 313.999 231.526 313.785 230.995 313.709C230.243 313.626 229.482 313.725 228.777 314C228.237 314.141 227.732 314.394 227.294 314.741C226.856 315.088 226.495 315.522 226.233 316.016C225.791 317.152 225.809 318.416 226.285 319.538L229.719 329.824C229.863 330.416 230.122 330.974 230.483 331.466C230.844 331.957 231.299 332.372 231.821 332.687C232.339 332.916 232.897 333.038 233.463 333.046C234.029 333.054 234.591 332.948 235.114 332.734C235.812 332.538 236.45 332.171 236.971 331.666C237.342 331.285 237.601 330.808 237.718 330.288C237.815 329.818 237.833 329.334 237.772 328.858C237.71 328.386 237.639 327.946 237.559 327.535C237.481 327.289 237.472 327.026 237.533 326.775C237.593 326.524 237.722 326.294 237.904 326.11C238.332 325.706 238.849 325.407 239.414 325.237C240.047 324.968 240.753 324.919 241.417 325.101C241.73 325.277 242 325.518 242.21 325.809C242.42 326.1 242.565 326.432 242.634 326.784C243.123 328.149 243.181 329.631 242.802 331.03C242.403 332.416 241.617 333.659 240.537 334.613C239.297 335.708 237.84 336.528 236.261 337.02Z" fill="white"/>
<path d="M260.388 108.605C259.932 108.213 259.577 107.717 259.353 107.159C259.24 106.932 259.196 106.676 259.229 106.424C259.261 106.172 259.368 105.935 259.535 105.744L276.163 86.7265C276.326 86.5295 276.547 86.3882 276.794 86.322C277.041 86.2558 277.303 86.2681 277.543 86.3572C278.115 86.5274 278.642 86.8215 279.088 87.2186C279.546 87.6082 279.911 88.0964 280.155 88.6468C280.271 88.8726 280.315 89.1288 280.28 89.3804C280.245 89.6319 280.134 89.8667 279.961 90.0526L272.977 98.0379L286.847 94.9872C287.106 94.9087 287.382 94.8989 287.647 94.9585C287.911 95.0182 288.156 95.1454 288.357 95.3277C288.707 95.6461 288.966 96.0511 289.11 96.5019C289.278 96.978 289.354 97.482 289.334 97.9867C289.327 98.4433 289.162 98.8834 288.866 99.2313C288.759 99.3472 288.636 99.4481 288.501 99.5312C288.339 99.6341 288.157 99.7028 287.967 99.733L277.03 101.731L274.914 117.022C274.872 117.338 274.739 117.635 274.531 117.876C274.234 118.202 273.836 118.418 273.402 118.49C272.908 118.585 272.4 118.572 271.912 118.451C271.422 118.341 270.967 118.112 270.587 117.783C270.324 117.559 270.121 117.275 269.993 116.955C269.868 116.61 269.829 116.239 269.88 115.875L271.67 102.727L268.351 103.335L263.334 109.07C263.169 109.261 262.951 109.399 262.707 109.466C262.464 109.534 262.206 109.528 261.966 109.45C261.379 109.302 260.837 109.012 260.388 108.605Z" fill="white"/>
<path d="M274.945 122.349C274.606 121.938 274.385 121.443 274.305 120.917C274.255 120.678 274.273 120.431 274.358 120.203C274.442 119.974 274.589 119.774 274.782 119.625L294.34 103.699C294.525 103.541 294.751 103.438 294.991 103.401C295.232 103.365 295.478 103.397 295.702 103.493C296.201 103.679 296.641 103.997 296.974 104.412L305.711 115.14C305.881 115.324 305.993 115.553 306.034 115.799C306.075 116.046 306.043 116.299 305.942 116.528C305.743 117.003 305.429 117.422 305.029 117.747C304.605 118.112 304.088 118.351 303.535 118.436C303.299 118.476 303.056 118.45 302.834 118.361C302.611 118.272 302.417 118.124 302.273 117.933L295.328 109.406L289.302 114.316L293.031 118.896C293.187 119.07 293.295 119.281 293.345 119.509C293.394 119.737 293.383 119.974 293.313 120.196C293.163 120.677 292.869 121.099 292.471 121.408C292.112 121.694 291.682 121.878 291.227 121.942C290.986 121.98 290.739 121.949 290.514 121.852C290.289 121.756 290.096 121.598 289.957 121.397L286.228 116.818L280.169 121.749L287.115 130.278C287.272 130.458 287.377 130.678 287.419 130.913C287.46 131.149 287.437 131.391 287.351 131.615C287.155 132.138 286.817 132.597 286.374 132.937C285.974 133.261 285.5 133.481 284.995 133.577C284.75 133.632 284.494 133.613 284.26 133.523C284.026 133.432 283.824 133.275 283.679 133.07L274.945 122.349ZM300.73 105.513C300.637 105.385 300.579 105.236 300.56 105.08C300.541 104.923 300.563 104.764 300.623 104.618C300.729 104.252 300.946 103.928 301.243 103.689C301.472 103.503 301.746 103.383 302.037 103.34C302.329 103.297 302.626 103.333 302.899 103.444L306.598 104.541C306.821 104.613 307.018 104.748 307.166 104.93C307.314 105.112 307.406 105.332 307.432 105.565L307.764 109.356C307.805 109.658 307.768 109.966 307.656 110.25C307.544 110.534 307.36 110.784 307.123 110.976C306.838 111.206 306.492 111.348 306.127 111.385C305.97 111.417 305.806 111.406 305.654 111.354C305.501 111.302 305.366 111.21 305.261 111.088C305.221 111.035 305.189 110.977 305.168 110.914C305.139 110.838 305.11 110.761 305.081 110.684L304.781 106.869L301.082 105.771C301.011 105.729 300.942 105.684 300.874 105.64C300.819 105.606 300.771 105.563 300.73 105.513ZM305.172 104.753C305.04 104.577 304.953 104.37 304.92 104.152C304.887 103.935 304.908 103.712 304.982 103.504C305.08 103.055 305.321 102.649 305.667 102.346C305.843 102.177 306.065 102.063 306.306 102.019C306.546 101.974 306.794 102.002 307.019 102.097L312.186 104.504C312.328 104.601 312.456 104.716 312.566 104.847C312.703 105.021 312.795 105.227 312.832 105.445C312.87 105.664 312.851 105.888 312.78 106.098C312.672 106.55 312.422 106.956 312.068 107.256C311.888 107.42 311.664 107.525 311.424 107.56C311.184 107.594 310.939 107.556 310.722 107.449L305.633 105.077C305.556 105.019 305.473 104.969 305.386 104.927C305.302 104.886 305.23 104.827 305.174 104.753H305.172Z" fill="white"/>
<path d="M288.807 141.775C288.496 141.254 288.319 140.663 288.291 140.057C288.261 139.806 288.306 139.552 288.42 139.327C288.534 139.102 288.712 138.916 288.931 138.792L308.241 127.699L305.396 122.746C305.275 122.539 305.214 122.302 305.218 122.062C305.223 121.822 305.293 121.588 305.422 121.385C305.694 120.896 306.099 120.493 306.59 120.222C307.054 119.954 307.579 119.807 308.115 119.795C308.364 119.778 308.612 119.834 308.829 119.957C309.047 120.079 309.223 120.262 309.338 120.483L317.526 134.737C317.666 134.948 317.739 135.195 317.737 135.448C317.734 135.701 317.657 135.948 317.513 136.156C317.224 136.606 316.83 136.978 316.365 137.242C315.886 137.528 315.339 137.68 314.781 137.683C314.538 137.693 314.297 137.634 314.085 137.514C313.873 137.393 313.7 137.216 313.584 137.002L310.759 132.082L291.447 143.173C291.227 143.3 290.974 143.358 290.72 143.34C290.466 143.322 290.224 143.229 290.023 143.073C289.519 142.745 289.102 142.299 288.807 141.775Z" fill="white"/>
<path d="M297.76 160.85C297.591 160.273 297.565 159.664 297.683 159.075C297.712 158.822 297.815 158.584 297.979 158.39C298.144 158.196 298.363 158.055 298.607 157.986L322.881 151.135C323.127 151.06 323.391 151.062 323.637 151.141C323.883 151.219 324.099 151.371 324.256 151.575C324.654 152.023 324.943 152.556 325.101 153.134C325.255 153.629 325.332 154.145 325.33 154.664C325.301 155.124 325.154 155.568 324.903 155.955C324.521 156.526 324.062 157.043 323.539 157.491L311.626 168.645L326.662 164.403C326.907 164.328 327.168 164.33 327.411 164.409C327.654 164.489 327.866 164.643 328.018 164.848C328.402 165.309 328.684 165.844 328.847 166.421C329.01 166.998 329.05 167.602 328.964 168.195C328.937 168.446 328.833 168.684 328.667 168.875C328.5 169.065 328.28 169.201 328.034 169.262L303.727 176.124C303.484 176.193 303.227 176.19 302.986 176.114C302.746 176.038 302.533 175.893 302.374 175.697C301.961 175.252 301.662 174.712 301.507 174.124C301.347 173.577 301.309 173.002 301.395 172.439C301.504 171.85 301.809 171.316 302.26 170.923L315.016 158.601L299.979 162.844C299.737 162.914 299.479 162.911 299.238 162.835C298.998 162.759 298.785 162.613 298.627 162.417C298.213 161.974 297.916 161.435 297.76 160.85Z" fill="white"/>
<path d="M303.273 188.81C303.107 187.234 303.262 185.64 303.73 184.126C304.178 182.716 305.066 181.487 306.263 180.618C307.764 179.609 309.514 179.033 311.321 178.954L322.121 177.982C323.913 177.736 325.739 177.991 327.396 178.717C328.724 179.354 329.815 180.397 330.513 181.694C331.247 183.106 331.685 184.653 331.8 186.241C331.965 187.823 331.811 189.424 331.346 190.946C330.901 192.36 330.014 193.595 328.815 194.468C327.313 195.478 325.563 196.054 323.755 196.134L312.956 197.106C311.163 197.351 309.338 197.097 307.681 196.37C306.344 195.725 305.251 194.668 304.56 193.355C303.831 191.941 303.393 190.396 303.273 188.81ZM307.686 188.413C307.705 188.959 307.834 189.497 308.066 189.992C308.299 190.487 308.629 190.931 309.037 191.295C309.535 191.648 310.097 191.898 310.692 192.033C311.287 192.167 311.902 192.182 312.503 192.076L323.302 191.104C323.912 191.1 324.515 190.976 325.076 190.737C325.638 190.499 326.146 190.152 326.573 189.716C327.198 188.818 327.488 187.729 327.39 186.639C327.293 185.549 326.814 184.528 326.039 183.756C325.542 183.403 324.98 183.152 324.385 183.019C323.791 182.885 323.175 182.871 322.575 182.976L311.776 183.948C311.166 183.951 310.563 184.075 310.002 184.314C309.44 184.552 308.932 184.899 308.506 185.335C308.167 185.766 307.92 186.261 307.779 186.79C307.639 187.319 307.607 187.871 307.686 188.413ZM333.675 182.366C333.671 182.208 333.708 182.052 333.78 181.913C333.853 181.773 333.96 181.654 334.092 181.567C334.385 181.322 334.746 181.173 335.127 181.14C335.42 181.115 335.714 181.169 335.98 181.296C336.245 181.423 336.471 181.619 336.635 181.863L339.09 184.842C339.235 185.027 339.322 185.249 339.343 185.483C339.364 185.716 339.317 185.951 339.208 186.158L337.361 189.484C337.228 189.759 337.026 189.994 336.775 190.168C336.524 190.341 336.232 190.446 335.929 190.473C335.564 190.505 335.197 190.431 334.874 190.259C334.725 190.198 334.596 190.098 334.499 189.969C334.402 189.841 334.341 189.689 334.322 189.529C334.318 189.463 334.325 189.396 334.342 189.332C334.361 189.253 334.379 189.172 334.399 189.093L336.285 185.762L333.83 182.782C333.797 182.707 333.764 182.633 333.732 182.558C333.703 182.497 333.684 182.432 333.674 182.366H333.675ZM337.784 184.221C337.773 184.001 337.816 183.781 337.911 183.582C338.005 183.383 338.147 183.21 338.325 183.079C338.658 182.761 339.084 182.558 339.541 182.501C339.781 182.46 340.029 182.489 340.253 182.587C340.477 182.685 340.667 182.846 340.8 183.051L343.737 187.938C343.801 188.096 343.842 188.263 343.86 188.433C343.877 188.654 343.839 188.876 343.748 189.079C343.657 189.282 343.517 189.458 343.34 189.592C342.998 189.907 342.564 190.104 342.103 190.154C341.863 190.189 341.618 190.151 341.399 190.046C341.181 189.94 340.999 189.771 340.878 189.561L337.988 184.748C337.957 184.657 337.916 184.569 337.866 184.487C337.819 184.405 337.791 184.315 337.784 184.221Z" fill="white"/>
<path d="M303.83 202.726C303.848 202.127 304.01 201.541 304.303 201.018C304.408 200.786 304.579 200.59 304.796 200.456C305.012 200.322 305.263 200.256 305.518 200.265L330.761 201.216C331.017 201.219 331.266 201.301 331.472 201.452C331.679 201.602 331.834 201.814 331.915 202.056C332.138 202.613 332.241 203.21 332.219 203.809C332.196 204.407 332.049 204.995 331.785 205.533C331.682 205.765 331.511 205.959 331.293 206.09C331.076 206.221 330.824 206.282 330.571 206.264L305.328 205.314C305.076 205.306 304.832 205.224 304.627 205.078C304.421 204.932 304.263 204.729 304.173 204.493C303.915 203.941 303.797 203.334 303.83 202.726Z" fill="white"/>
<path d="M77.1219 180.532C76.8982 182.101 76.357 183.608 75.5314 184.961C74.7528 186.215 73.5933 187.188 72.2224 187.736C70.5193 188.348 68.6802 188.479 66.9078 188.113L56.1994 186.405C54.4013 186.204 52.6936 185.51 51.2648 184.4C50.1327 183.458 49.33 182.179 48.973 180.75C48.6084 179.253 48.5536 177.698 48.8119 176.18C49.0401 174.552 49.5972 172.987 50.4493 171.581C51.1847 170.371 52.24 169.387 53.4989 168.739C54.7835 168.113 56.2354 167.916 57.6405 168.178C57.9903 168.187 58.3336 168.275 58.6454 168.433C58.9572 168.592 59.2298 168.818 59.4433 169.096C59.7158 169.71 59.7792 170.397 59.6237 171.051C59.5445 171.648 59.3325 172.22 59.0035 172.724C58.8595 172.941 58.6544 173.112 58.4141 173.213C58.1737 173.315 57.9087 173.344 57.6522 173.296C57.0381 173.224 56.4163 173.251 55.8109 173.377C55.1879 173.511 54.6211 173.833 54.1874 174.299C53.6296 174.992 53.2908 175.836 53.2139 176.722C53.0976 177.259 53.0929 177.814 53.2001 178.352C53.3074 178.89 53.5242 179.401 53.8373 179.852C54.6335 180.781 55.7654 181.357 56.9851 181.453L67.6923 183.168C68.8822 183.456 70.1377 183.259 71.1828 182.622C72.0204 181.912 72.5758 180.925 72.7481 179.841C72.9204 178.757 72.6983 177.646 72.1221 176.712C71.3261 175.782 70.1941 175.207 68.9743 175.111L66.7092 174.751L66.215 177.859C66.1864 178.086 66.0978 178.302 65.9585 178.484C65.8191 178.666 65.634 178.808 65.4219 178.895C64.9813 179.094 64.4918 179.16 64.014 179.084C63.5363 179.008 63.0913 178.794 62.7342 178.468C62.5594 178.319 62.4271 178.127 62.3508 177.911C62.2745 177.695 62.2569 177.463 62.2997 177.238L63.3373 170.713C63.3577 170.492 63.4283 170.279 63.5437 170.089C63.6592 169.9 63.8164 169.739 64.0033 169.62C64.3617 169.402 64.7871 169.323 65.1999 169.396L69.7674 170.123C71.565 170.323 73.2723 171.017 74.701 172.126C75.8384 173.079 76.6401 174.372 76.9884 175.815C77.3481 177.363 77.3935 178.967 77.1219 180.532Z" fill="white"/>
<path d="M46.5116 148.716C46.4294 148.92 46.298 149.101 46.1292 149.243C45.9603 149.385 45.7592 149.482 45.5435 149.528C45.1081 149.677 44.6365 149.683 44.1975 149.545C43.9613 149.482 43.7487 149.352 43.5861 149.169C43.4235 148.987 43.318 148.761 43.2827 148.519L42.6519 142.853C42.6609 142.682 42.6932 142.513 42.7479 142.351C42.8246 142.142 42.9522 141.957 43.1191 141.811C43.286 141.665 43.4868 141.563 43.7033 141.515C44.145 141.372 44.6209 141.375 45.061 141.522C45.294 141.59 45.5012 141.726 45.6556 141.913C45.81 142.1 45.9045 142.329 45.9267 142.57L46.5469 148.152C46.5361 148.248 46.5361 148.344 46.5469 148.44C46.5571 148.533 46.5451 148.628 46.5116 148.716ZM52.851 150.139C52.4555 151.232 51.685 152.15 50.6767 152.728C49.6893 153.359 48.5216 153.648 47.3538 153.55C47.204 153.546 47.0578 153.503 46.9298 153.426C46.8019 153.348 46.6967 153.237 46.6248 153.106C46.5651 152.966 46.5343 152.815 46.5343 152.663C46.5343 152.511 46.5651 152.361 46.6248 152.221L46.8383 151.635C46.874 151.509 46.9348 151.392 47.017 151.29C47.0991 151.188 47.201 151.104 47.3165 151.043C47.5606 150.933 47.826 150.879 48.0935 150.885C48.6732 150.946 49.2568 150.813 49.7523 150.506C50.1973 150.257 50.5419 149.862 50.7269 149.387C50.901 148.899 50.8849 148.364 50.682 147.887C50.4622 147.355 50.0953 146.896 49.6242 146.564C49.4135 146.399 49.2415 146.19 49.1204 145.951C49.0695 145.831 49.0432 145.701 49.0432 145.57C49.0432 145.44 49.0695 145.31 49.1204 145.19L49.3339 144.603C49.3782 144.459 49.4512 144.327 49.5485 144.212C49.6457 144.098 49.7652 144.005 49.8996 143.938C50.0406 143.879 50.1955 143.86 50.3465 143.885C50.4975 143.909 50.6385 143.976 50.7535 144.077C51.7015 144.736 52.4124 145.683 52.7816 146.777C53.206 147.854 53.2306 149.046 52.851 150.139ZM79.4638 167.655C79.2954 168.117 79.046 168.545 78.7273 168.92C78.4217 169.299 78.0436 169.614 77.6151 169.845C77.4358 169.949 77.2361 170.013 77.0297 170.033C76.8233 170.052 76.6152 170.027 76.4196 169.958C76.2992 169.909 76.1817 169.853 76.0673 169.792L55.5345 154.554C55.2933 154.365 55.0966 154.125 54.9583 153.851C54.82 153.578 54.7434 153.277 54.7339 152.97C54.6842 152.267 54.7802 151.56 55.0161 150.896C55.2519 150.231 55.6225 149.622 56.1045 149.107C56.3055 148.88 56.5537 148.698 56.8319 148.576C57.1101 148.454 57.4115 148.394 57.7152 148.4L83.2585 149.498C83.3916 149.502 83.5238 149.521 83.6524 149.556C83.8439 149.63 84.0173 149.745 84.1605 149.892C84.3038 150.04 84.4138 150.216 84.4828 150.41C84.676 150.866 84.7754 151.357 84.7753 151.853C84.7861 152.344 84.7106 152.834 84.5522 153.299C84.4384 153.649 84.2472 153.968 83.9929 154.234C83.867 154.353 83.7159 154.442 83.5508 154.494C83.3858 154.547 83.211 154.561 83.0397 154.536L77.6748 154.201L74.6861 162.626L79.0774 165.708C79.2276 165.799 79.3547 165.923 79.4488 166.071C79.5428 166.219 79.6013 166.387 79.6197 166.562C79.6481 166.933 79.5949 167.306 79.4638 167.655ZM71.3184 160.274L73.5781 153.9L61.2035 153.099L71.3184 160.274Z" fill="white"/>
<path d="M87.6187 146.834C87.3198 147.355 86.8999 147.798 86.3944 148.123C86.1926 148.278 85.9493 148.369 85.6956 148.385C85.4418 148.401 85.189 148.341 84.9694 148.213L63.1824 135.504C62.9565 135.379 62.7742 135.188 62.6598 134.957C62.5453 134.725 62.5042 134.465 62.5419 134.209C62.5868 133.612 62.7695 133.033 63.0756 132.519C63.3247 132.064 63.6423 131.65 64.0171 131.291C64.3667 130.992 64.7877 130.788 65.2393 130.7C65.9165 130.578 66.607 130.55 67.2919 130.614L83.5924 131.439L70.0982 123.567C69.8745 123.444 69.6944 123.255 69.5828 123.026C69.4711 122.796 69.4334 122.538 69.4748 122.286C69.5405 121.691 69.7305 121.115 70.0326 120.598C70.3347 120.08 70.7422 119.632 71.2286 119.282C71.4282 119.126 71.671 119.035 71.924 119.021C72.1769 119.008 72.4279 119.073 72.6429 119.207L94.4662 131.933C94.6844 132.058 94.8606 132.246 94.9728 132.471C95.085 132.697 95.1283 132.951 95.097 133.201C95.0663 133.809 94.8863 134.399 94.5729 134.921C94.2902 135.416 93.9026 135.843 93.4372 136.171C92.9387 136.501 92.3429 136.652 91.7475 136.598L74.022 135.977L87.5173 143.849C87.7357 143.975 87.9122 144.162 88.0246 144.388C88.137 144.613 88.1803 144.867 88.1492 145.117C88.1156 145.724 87.9335 146.314 87.6187 146.834Z" fill="white"/>
<path d="M104.287 122.433C103.868 122.863 103.352 123.187 102.781 123.376C102.547 123.476 102.289 123.504 102.039 123.457C101.789 123.409 101.559 123.288 101.378 123.109L83.4132 105.354C83.2268 105.178 83.0996 104.949 83.0492 104.698C82.9987 104.447 83.0274 104.186 83.1314 103.952C83.3432 103.392 83.6704 102.882 84.0916 102.456C84.5129 102.03 85.0189 101.697 85.5769 101.479C85.809 101.378 86.0667 101.35 86.315 101.401C86.5633 101.451 86.7901 101.576 86.9645 101.76L94.5101 109.218L92.3144 95.189C92.2512 94.9253 92.2572 94.6498 92.3321 94.3893C92.4069 94.1287 92.5479 93.8919 92.7414 93.702C93.0811 93.3724 93.5014 93.138 93.9604 93.0221C94.4455 92.8833 94.9527 92.8384 95.4547 92.8897C95.91 92.9237 96.339 93.1159 96.6673 93.433C96.7767 93.5473 96.8701 93.6758 96.9448 93.8152C97.0379 93.9845 97.0947 94.1714 97.1114 94.3638L98.4403 105.404L113.573 108.449C113.885 108.511 114.172 108.662 114.4 108.884C114.707 109.2 114.899 109.61 114.944 110.048C115.01 110.547 114.966 111.054 114.814 111.534C114.675 112.016 114.418 112.456 114.067 112.815C113.829 113.064 113.532 113.25 113.204 113.355C112.852 113.461 112.48 113.477 112.12 113.403L99.1096 110.814L99.513 114.164L104.929 119.52C105.11 119.696 105.235 119.921 105.288 120.168C105.342 120.415 105.321 120.672 105.228 120.907C105.044 121.485 104.72 122.009 104.287 122.433Z" fill="white"/>
<path d="M103.185 77.4997C103.001 77.6207 102.789 77.6943 102.57 77.714C102.35 77.7338 102.129 77.699 101.926 77.6129C101.483 77.4855 101.092 77.2195 100.811 76.854C100.653 76.6677 100.553 76.4391 100.524 76.1966C100.495 75.954 100.537 75.7083 100.647 75.4898L103.367 70.4793C103.472 70.3436 103.595 70.2232 103.732 70.1218C103.914 69.9947 104.125 69.9153 104.345 69.8909C104.566 69.8664 104.789 69.8978 104.994 69.9819C105.438 70.1193 105.826 70.3955 106.101 70.7697C106.253 70.9586 106.344 71.1889 106.363 71.4305C106.382 71.6721 106.328 71.9139 106.208 72.1242L103.539 77.0557C103.476 77.1286 103.42 77.208 103.374 77.2927C103.328 77.3756 103.263 77.4465 103.185 77.4997ZM118.891 108.75C118.457 109.063 117.948 109.254 117.416 109.303C117.175 109.338 116.929 109.304 116.707 109.206C116.484 109.107 116.294 108.949 116.157 108.747L101.463 88.2529C101.316 88.0587 101.227 87.8272 101.205 87.5847C101.183 87.3422 101.23 87.0984 101.34 86.8813C101.557 86.3942 101.901 85.9749 102.336 85.6676L113.585 77.6011C113.778 77.442 114.014 77.3435 114.264 77.3178C114.513 77.2922 114.764 77.3406 114.986 77.457C115.449 77.6846 115.848 78.023 116.148 78.4423C116.486 78.8872 116.693 79.4183 116.744 79.9751C116.769 80.213 116.728 80.453 116.626 80.6693C116.524 80.8856 116.365 81.07 116.166 81.2026L107.226 87.6071L111.755 93.9251L116.559 90.4838C116.741 90.3392 116.959 90.2446 117.189 90.2095C117.419 90.1743 117.655 90.1997 117.872 90.2831C118.343 90.462 118.748 90.7814 119.031 91.1979C119.295 91.5737 119.453 92.0135 119.489 92.4713C119.512 92.7145 119.466 92.9593 119.356 93.1775C119.246 93.3958 119.077 93.5787 118.868 93.7053L114.065 97.1477L118.616 103.497L127.555 97.0922C127.744 96.9459 127.97 96.8542 128.208 96.8271C128.445 96.8 128.686 96.8385 128.903 96.9385C129.414 97.1661 129.851 97.5326 130.164 97.9963C130.465 98.4144 130.657 98.9008 130.723 99.4117C130.761 99.6591 130.726 99.9122 130.622 100.14C130.518 100.368 130.349 100.56 130.137 100.693L118.891 108.75ZM103.671 81.9776C103.537 82.0612 103.385 82.1094 103.227 82.1176C103.07 82.1259 102.913 82.0938 102.772 82.0245C102.413 81.8958 102.101 81.66 101.88 81.3488C101.71 81.1091 101.606 80.828 101.581 80.5347C101.556 80.2415 101.61 79.9468 101.737 79.6815L103.059 76.0523C103.146 75.8339 103.294 75.6452 103.486 75.509C103.677 75.3735 103.902 75.2947 104.136 75.2817L107.94 75.1856C108.244 75.1613 108.549 75.2162 108.826 75.3449C109.102 75.4736 109.341 75.6717 109.518 75.92C109.731 76.2178 109.851 76.5715 109.865 76.9372C109.888 77.0977 109.868 77.2616 109.807 77.4117C109.745 77.5619 109.645 77.6929 109.516 77.7911C109.459 77.8265 109.398 77.8538 109.334 77.8723L109.102 77.9449L105.274 78.01L103.952 81.6392L103.808 81.8388C103.77 81.8921 103.724 81.9389 103.671 81.9776Z" fill="white"/>
<path d="M139.112 96.139C138.571 96.4162 137.97 96.5563 137.362 96.5468C137.111 96.5603 136.861 96.4993 136.643 96.3713C136.426 96.2434 136.252 96.0541 136.141 95.8273L126.285 75.8592L121.161 78.3879C120.947 78.4956 120.708 78.5426 120.47 78.5238C120.231 78.505 120.002 78.421 119.808 78.2812C119.335 77.9785 118.958 77.5491 118.718 77.0419C118.48 76.5611 118.366 76.0281 118.388 75.492C118.387 75.2436 118.459 75.0003 118.594 74.7918C118.729 74.5833 118.922 74.4187 119.149 74.3178L133.89 67.0338C134.11 66.9087 134.362 66.852 134.614 66.871C134.866 66.89 135.107 66.9839 135.306 67.1405C135.736 67.457 136.084 67.8731 136.319 68.3531C136.573 68.8498 136.69 69.4057 136.656 69.9628C136.651 70.2061 136.578 70.4432 136.445 70.6469C136.312 70.8506 136.124 71.0127 135.903 71.1145L130.814 73.6262L140.671 93.5943C140.784 93.8226 140.826 94.0792 140.792 94.3315C140.759 94.5838 140.65 94.8203 140.481 95.0108C140.122 95.4909 139.652 95.8778 139.112 96.139Z" fill="white"/>
<defs>
<linearGradient id="paint0_linear_159_3269" x1="282.679" y1="64.331" x2="299.981" y2="297.113" gradientUnits="userSpaceOnUse">
<stop stop-color="#379DA0"/>
<stop offset="1" stop-color="#45C1C4"/>
</linearGradient>
<linearGradient id="paint1_linear_159_3269" x1="44.1163" y1="190.046" x2="206.12" y2="26.4699" gradientUnits="userSpaceOnUse">
<stop stop-color="#7BB43A"/>
<stop offset="0.157" stop-color="#8ABC38"/>
<stop offset="0.481" stop-color="#A4CA35"/>
<stop offset="0.773" stop-color="#B4D233"/>
<stop offset="1" stop-color="#BAD532"/>
</linearGradient>
<linearGradient id="paint2_linear_159_3269" x1="51.3737" y1="219.327" x2="51.7975" y2="218.9" gradientUnits="userSpaceOnUse">
<stop stop-color="#7BB43A"/>
<stop offset="0.157" stop-color="#8ABC38"/>
<stop offset="0.481" stop-color="#A4CA35"/>
<stop offset="0.773" stop-color="#B4D233"/>
<stop offset="1" stop-color="#BAD532"/>
</linearGradient>
<linearGradient id="paint3_linear_159_3269" x1="293.292" y1="317.047" x2="62.0662" y2="211.688" gradientUnits="userSpaceOnUse">
<stop stop-color="#F99D1C"/>
<stop offset="0.355" stop-color="#FCB411"/>
<stop offset="0.717" stop-color="#FEC30A"/>
<stop offset="1" stop-color="#FFC907"/>
</linearGradient>
<linearGradient id="paint4_linear_159_3269" x1="277.306" y1="352.119" x2="46.0974" y2="246.738" gradientUnits="userSpaceOnUse">
<stop stop-color="#F99D1C"/>
<stop offset="0.355" stop-color="#FCB411"/>
<stop offset="0.717" stop-color="#FEC30A"/>
<stop offset="1" stop-color="#FFC907"/>
</linearGradient>
<linearGradient id="paint5_linear_159_3269" x1="141.184" y1="163.965" x2="189.952" y2="159.109" gradientUnits="userSpaceOnUse">
<stop stop-color="#FEBC18"/>
<stop offset="1" stop-color="#F58220"/>
</linearGradient>
<linearGradient id="paint6_linear_159_3269" x1="159.449" y1="200.67" x2="219.939" y2="200.67" gradientUnits="userSpaceOnUse">
<stop stop-color="#FEBC18"/>
<stop offset="0.996" stop-color="#F58220"/>
</linearGradient>
<linearGradient id="paint7_linear_159_3269" x1="205.785" y1="220.023" x2="188.994" y2="231.876" gradientUnits="userSpaceOnUse">
<stop stop-color="#F58220"/>
<stop offset="1" stop-color="#FEBC18"/>
</linearGradient>
<linearGradient id="paint8_linear_159_3269" x1="203.467" y1="225.739" x2="198.933" y2="205.707" gradientUnits="userSpaceOnUse">
<stop stop-color="#F58220"/>
<stop offset="1" stop-color="#FEBC18"/>
</linearGradient>
<linearGradient id="paint9_linear_159_3269" x1="173.522" y1="201.787" x2="205.865" y2="201.787" gradientUnits="userSpaceOnUse">
<stop stop-color="#FEBC18"/>
<stop offset="1" stop-color="#F58220"/>
</linearGradient>
</defs>
</svg>
